<svg version="1.1" viewBox="0 0 743 242.86" xmlns="http://www.w3.org/2000/svg">

  <style>
    path {
      opacity: 0;
    }

    #name path {
      opacity: 1;
      stroke-dasharray: 100%;
      stroke-dashoffset: 100%;
      animation: strokeFill 5s linear 0.5s forwards;
    }



    .line {
      stroke-dasharray: 100%;
      stroke-dashoffset: 100%;
    }

    #issue {
      animation: revealAnim 0.5s linear forwards;
    }

    #issue-line {
      animation: strokeFill 1s linear 0.5s forwards;
    }

    #fork {
      animation: revealAnim 0.5s linear 1s forwards;
    }

    #fork-line {
      animation: strokeFill 1s linear 1.5s forwards;
    }

    #pull {
      animation: revealAnim 0.5s linear 2s forwards;
    }

    #pull-line {
      animation: strokeFill 1s linear 2.5s forwards;
    }

    #branch {
      animation: revealAnim 0.5s linear 3s forwards;
    }

    #branch-line {
      animation: strokeFill 1s linear 3.5s forwards;
    }

    #commit {
      animation: revealAnim 0.5s linear 4s forwards;
    }

    #commit-line {
      animation: strokeFill 1s linear 4.5s forwards;
    }

    #open-pr {
      animation: revealAnim 0.5s linear 5s forwards;
    }

    #open-pr-line {
      animation: strokeFill 1s linear 5.5s forwards;
    }

    #closed {
      animation: revealAnim 0.5s linear 6s forwards;
    }

    #closed-line {
      animation: strokeFill 1s linear 6.5s forwards;
    }

    #draft {
      animation: revealAnim 0.5s linear 7s forwards;
    }

    #draft-line {
      animation: strokeFill 1s linear 7.5s forwards;
    }

    #compare {
      animation: revealAnim 0.5s linear 8s forwards;
    }

    #compare-line {
      animation: strokeFill 1s linear 8.5s forwards;
    }

    #merge {
      animation: revealAnim 0.5s linear 9s forwards;
    }

    #merge-line {
      animation: strokeFill 1s linear 9.5s forwards;
    }


    @keyframes revealAnim {
      0% {
        opacity: 0;
      }

      100% {
        opacity: 1;
      }
    }

    @keyframes strokeFill {
      from {
        opacity: 1;
      }

      to {
        stroke-dashoffset: 0;
        opacity: 1;
      }
    }

    #category path {
      animation: revealAnim 2s linear 5s forwards;
    }
  </style>


  <rect id="background" x="1.5" y="1.5" width="740" height="239.86" ry="12.415" fill="#141321" stroke="#fe428e"
    stroke-width="3" />
  <path id="issue"
    d="m37.23 13.441c-6.8854 0-12.498 5.6146-12.498 12.5s5.6127 12.5 12.498 12.5c6.8854 0 12.5-5.6146 12.5-12.5s-5.6146-12.5-12.5-12.5zm0 3.0644c5.2299 0 9.4375 4.2057 9.4375 9.4356 0 5.2298-4.2076 9.4375-9.4375 9.4375s-9.4355-4.2076-9.4355-9.4375 4.2057-9.4356 9.4355-9.4356zm2e-3 6.0215a3.4159 3.4159 0 0 0-3.416 3.416 3.4159 3.4159 0 0 0 3.416 3.4141 3.4159 3.4159 0 0 0 3.4141-3.4141 3.4159 3.4159 0 0 0-3.4141-3.416z"
    color="#000000" fill="#3fb950" stroke-width=".21126" />
  <path id="issue-line" class="line" d="m52.857 26.027h202.51" fill="none" stroke="#6e8c6e" stroke-linecap="round"
    stroke-width="1.595" />
  <path id="fork"
    d="m258.98 22.011c0.2075 1.4787 0.98623 4.0088 3.8588 5.0988 2.9425 1.1188 2.9425 2 2.9425 2.5825v0.20375c-1.8 0.5425-3.125 2.1962-3.125 4.1712 0 2.4125 1.9625 4.375 4.375 4.375s4.375-1.9625 4.375-4.375c0-1.975-1.325-3.6288-3.125-4.1712v-0.20375c0-0.5825 0-1.4638 2.9425-2.5812 2.8725-1.09 3.6512-3.62 3.8587-5.0988 1.8388-0.51875 3.1988-2.1925 3.1988-4.195 0-2.4125-1.9625-4.375-4.375-4.375s-4.375 1.9625-4.375 4.375c0 1.94 1.2775 3.5688 3.03 4.1412-0.18251 0.91875-0.70626 2.2388-2.2225 2.815-1.49 0.56501-2.5663 1.1913-3.3075 1.92-0.74125-0.72875-1.8163-1.355-3.3075-1.92-1.5163-0.57625-2.0412-1.8962-2.2225-2.815 1.7525-0.5725 3.03-2.2012 3.03-4.1412 0-2.4125-1.9625-4.375-4.375-4.375s-4.375 1.9625-4.375 4.375c0 2.0025 1.36 3.6762 3.1988 4.1938zm14.926-6.0688c1.0338 0 1.875 0.84125 1.875 1.875s-0.84125 1.875-1.875 1.875-1.875-0.84125-1.875-1.875 0.84126-1.875 1.875-1.875zm-5 18.125c0 1.0338-0.84126 1.875-1.875 1.875-1.0338 0-1.875-0.84125-1.875-1.875s0.84123-1.875 1.875-1.875c1.0338 0 1.875 0.84125 1.875 1.875zm-8.75-18.125c1.0338 0 1.875 0.84125 1.875 1.875s-0.84125 1.875-1.875 1.875c-1.0338 0-1.875-0.84125-1.875-1.875s0.84124-1.875 1.875-1.875z"
    fill="#6e8c6e" stroke-width="1.25" />
  <path id="fork-line" class="line" d="m278.39 26.027h202.51" fill="none" stroke="#3fb950" stroke-linecap="round"
    stroke-width="1.595" />
  <path id="pull"
    d="m483.83 16.22c0-1.5341 1.2437-2.7778 2.7778-2.7778 1.5342 0 2.7778 1.2436 2.7778 2.7778 0 0.47455-0.11903 0.92133-0.32875 1.3121h0.80625c3.0682 0 5.5556 2.4873 5.5556 5.5556v1.7774c0.81431 0.4843 1.36 1.373 1.36 2.3893 0 1.5342-1.2436 2.7778-2.7778 2.7778s-2.7778-1.2436-2.7778-2.7778c0-1.04 0.57153-1.9465 1.4178-2.4226v-1.744c0-1.5341-1.2438-2.7778-2.7778-2.7778h-1.8664v12.948c0.83028 0.48028 1.3889 1.3779 1.3889 2.4061 0 1.5342-1.2436 2.7778-2.7778 2.7778-1.5341 0-2.7778-1.2436-2.7778-2.7778 0-1.0282 0.55861-1.9258 1.3889-2.4061v-14.632c-0.83028-0.48029-1.3889-1.378-1.3889-2.4062z"
    fill="#3fb950" stroke-width="1.3889" />
  <path id="pull-line" class="line" d="m501.06 26.027h196.28" fill="none" stroke="#6e8c6e" stroke-linecap="round"
    stroke-width="1.5703" />
  <path id="branch"
    d="m718.27 20.586a3.5709 3.5709 0 1 0-5.3714 3.0821c-0.12777 1.6225-1.1204 2.0644-4.1846 2.7016-0.99092 0.20532-2.0047 0.41567-2.941 0.77722v-7.0413a3.5709 3.5709 0 1 0-3.5709 0v11.673a3.5709 3.5709 0 1 0 3.5943 0.0134c0.13335-1.0043 0.89272-1.3575 3.6412-1.926 1.5305-0.31636 3.1122-0.64388 4.4513-1.5037 1.618-1.0367 2.4846-2.6101 2.5866-4.6806a3.5709 3.5709 0 0 0 1.7944-3.0961zm-14.284-5.3563a1.7854 1.7854 0 1 1-1.7854 1.7854 1.7854 1.7854 0 0 1 1.7854-1.7854zm0 21.425a1.7854 1.7854 0 1 1 1.7854-1.7854 1.7854 1.7854 0 0 1-1.7854 1.7854zm10.713-14.284a1.7854 1.7854 0 1 1 1.7854-1.7854 1.7854 1.7854 0 0 1-1.7854 1.7854z"
    fill="#6e8c6e" stroke-width=".055795" />
  <path id="branch-line" class="line" d="m703.9 40.759v66.009" fill="none" stroke="#f6f7f6" stroke-linecap="round"
    stroke-width="1.5729" />
  <path id="commit"
    d="m720.72 118.09h-6.6352a12.49 12.49 0 0 0-24.189 0h-6.6449a3.1224 3.1224 0 0 0 0 6.2449h6.6401a12.49 12.49 0 0 0 24.194 0h6.6352a3.1224 3.1224 0 0 0 0-6.2449zm-18.735 9.3673a6.2449 6.2449 0 1 1 6.2449-6.2449 6.2517 6.2517 0 0 1-6.2449 6.2449z"
    fill="#f6f7f6" stroke-width=".097577" />
  <path id="commit-line" class="line" d="m703.9 136.95v63.159" fill="none" stroke="#3fb950" stroke-linecap="round"
    stroke-width="1.5386" />
  <path id="open-pr"
    d="m701.29 202.53c-1.84 0-3.3333 1.4933-3.3333 3.3333 0 1.2297 0.67463 2.2933 1.6667 2.8719v10.924c-0.99204 0.57781-1.6667 1.6406-1.6667 2.8711 0 1.8392 1.4933 3.3333 3.3333 3.3333s3.3333-1.4941 3.3333-3.3333c0-1.2305-0.67303-2.2933-1.6667-2.8711v-10.924c0.99364-0.57862 1.6667-1.6422 1.6667-2.8719 0-1.84-1.4933-3.3333-3.3333-3.3333zm0 21.667c-0.91958 0-1.6667-0.74544-1.6667-1.6667 0-0.91959 0.74708-1.6667 1.6667-1.6667 0.92204 0 1.6667 0.74708 1.6667 1.6667 0 0.92122-0.74463 1.6667-1.6667 1.6667zm0-16.667c-0.91958 0-1.6667-0.74464-1.6667-1.6667s0.74708-1.6667 1.6667-1.6667c0.92204 0 1.6667 0.74464 1.6667 1.6667s-0.74463 1.6667-1.6667 1.6667zm15 12.129v-10.462c0-5.013-5-5-5-5h-1.6667v-3.3333l-5 5 5 5v-3.3333h1.6667c1.4697 0 1.6667 1.6667 1.6667 1.6667v10.462c-0.99284 0.57781-1.6667 1.639-1.6667 2.8711 0 1.8392 1.4941 3.3333 3.3333 3.3333s3.3333-1.4941 3.3333-3.3333c0-1.2305-0.67383-2.2933-1.6667-2.8711zm-1.6667 4.5378c-0.91959 0-1.6667-0.74544-1.6667-1.6667 0-0.91959 0.74708-1.6667 1.6667-1.6667 0.92122 0 1.6667 0.74708 1.6667 1.6667 0 0.92122-0.74544 1.6667-1.6667 1.6667z"
    fill="#3fb950" stroke-width=".026042" />
  <path id="open-pr-line" class="line" d="m689.87 213.36h-188.67" fill="none" stroke="#d40000" stroke-linecap="round"
    stroke-width="1.5396" />
  <path id="closed"
    d="m478.77 203.99c-1.7136 0-3.125 1.4114-3.125 3.125 0 1.3487 0.87412 2.5099 2.082 2.9434v6.6133c-1.2079 0.43346-2.082 1.5946-2.082 2.9434 0 1.7135 1.4114 3.125 3.125 3.125s3.125-1.4114 3.125-3.125c-1e-5 -1.3494-0.87519-2.5104-2.084-2.9434v-6.6133c1.2088-0.43298 2.084-1.594 2.084-2.9434-1e-5 -1.7136-1.4114-3.125-3.125-3.125zm10.299 6e-3a1.0417 1.0417 0 0 0-0.61914 0.29883 1.0417 1.0417 0 0 0 0 1.4746l1.3457 1.3457-1.3457 1.3477a1.0417 1.0417 0 0 0 0 1.4726 1.0417 1.0417 0 0 0 1.4726 0l1.3477-1.3476 1.3457 1.3476a1.0417 1.0417 0 0 0 1.4727 0 1.0417 1.0417 0 0 0 0-1.4726l-1.3457-1.3477 1.3457-1.3457a1.0417 1.0417 0 0 0 0-1.4746 1.0417 1.0417 0 0 0-1.4727 0l-1.3457 1.3476-1.3477-1.3476a1.0417 1.0417 0 0 0-0.85351-0.29883zm-10.299 2.0781c0.58763 0 1.041 0.45338 1.041 1.041 0 0.58763-0.45338 1.041-1.041 1.041-0.58764 0-1.043-0.45338-1.043-1.041s0.45533-1.041 1.043-1.041zm12.5 5.207a1.0417 1.0417 0 0 0-1.043 1.043v4.3477c-1.2079 0.43346-2.082 1.5946-2.082 2.9434 0 1.7135 1.4114 3.125 3.125 3.125s3.125-1.4114 3.125-3.125c-1e-5 -1.3494-0.87519-2.5104-2.084-2.9434v-4.3477a1.0417 1.0417 0 0 0-1.041-1.043zm-12.5 7.293c0.58763 0 1.041 0.45338 1.041 1.041 0 0.58763-0.45338 1.041-1.041 1.041-0.58764 0-1.043-0.45338-1.043-1.041s0.45533-1.041 1.043-1.041zm12.5 0c0.58763 0 1.041 0.45338 1.041 1.041 0 0.58763-0.45338 1.041-1.041 1.041-0.58764 0-1.043-0.45338-1.043-1.041s0.45533-1.041 1.043-1.041z"
    color="#000000" fill="#d40000" stroke-linecap="round" stroke-linejoin="round" />
  <path id="closed-line" class="line" d="m469.62 213.36h-193.21" fill="none" stroke="#808080" stroke-linecap="round"
    stroke-width="1.558" />
  <path id="draft"
    d="m253.33 203.99c-1.7136 0-3.125 1.4114-3.125 3.125 0 1.3487 0.87412 2.5099 2.082 2.9434v6.6133c-1.2079 0.43346-2.082 1.5946-2.082 2.9434 0 1.7136 1.4114 3.125 3.125 3.125s3.123-1.4114 3.123-3.125c0-1.3489-0.87446-2.51-2.082-2.9434v-6.6133c1.2076-0.43337 2.082-1.5945 2.082-2.9434 0-1.7136-1.4095-3.125-3.123-3.125zm0 2.084c0.58763 0 1.041 0.45338 1.041 1.041 0 0.58763-0.45338 1.041-1.041 1.041h-2e-3c-0.58669-1e-3 -1.041-0.45404-1.041-1.041 0-0.58764 0.45533-1.041 1.043-1.041zm12.498 0a1.0417 1.0417 0 0 0-1.041 1.041 1.0417 1.0417 0 0 0 1.041 1.041h0.0117a1.0417 1.0417 0 0 0 1.041-1.041 1.0417 1.0417 0 0 0-1.041-1.041zm0 5.207a1.0417 1.0417 0 0 0-1.041 1.043 1.0417 1.0417 0 0 0 1.041 1.041h0.0117a1.0417 1.0417 0 0 0 1.041-1.041 1.0417 1.0417 0 0 0-1.041-1.043zm2e-3 5.209c-1.7136 0-3.125 1.4114-3.125 3.125s1.4114 3.125 3.125 3.125 3.123-1.4114 3.123-3.125-1.4095-3.125-3.123-3.125zm-12.502 2.084a1.0417 1.0417 0 0 0 2e-3 0c0.58763 0 1.041 0.45338 1.041 1.041 0 0.58763-0.45338 1.041-1.041 1.041-0.58764 0-1.043-0.45338-1.043-1.041 0-0.58699 0.45432-1.04 1.041-1.041zm12.502 0c0.58763 0 1.041 0.45338 1.041 1.041 0 0.58763-0.45338 1.041-1.041 1.041-0.58764 0-1.043-0.45338-1.043-1.041 0-0.58764 0.45533-1.041 1.043-1.041z"
    color="#000000" fill="#808080" stroke-linecap="round" stroke-linejoin="round" />
  <path id="draft-line" class="line" d="m245.34 213.36h-193.21" fill="none" stroke="#c4d9c7" stroke-linecap="round"
    stroke-width="1.558" />
  <path id="compare"
    d="m45.098 218.26v-9.6825c0-4.6394-4.6273-4.6274-4.6273-4.6274h-1.5424v-3.0849l-4.6273 4.6273 4.6273 4.6273v-3.0849h1.5424c1.3602 0 1.5424 1.5425 1.5424 1.5425v9.6825c-0.91883 0.53475-1.5424 1.5153-1.5424 2.6571 0 1.7021 1.3828 3.0849 3.0849 3.0849s3.0849-1.3828 3.0849-3.0849c0-1.1388-0.62361-2.1224-1.5424-2.6571zm-1.5424 4.1996c-0.85105 0-1.5424-0.68989-1.5424-1.5424 0-0.85105 0.6914-1.5424 1.5424-1.5424 0.85256 0 1.5424 0.6914 1.5424 1.5424 0 0.85256-0.68989 1.5424-1.5424 1.5424zm-16.967-13.988v9.6817c0 4.6394 4.6273 4.6273 4.6273 4.6273h1.5424v3.0849l4.6273-4.6273-4.6273-4.6273v3.0849h-1.5424c-1.3602 0-1.5424-1.5424-1.5424-1.5424v-9.6817c0.91958-0.53548 1.5424-1.5161 1.5424-2.6578 0-1.7028-1.382-3.0849-3.0849-3.0849s-3.0849 1.382-3.0849 3.0849c0 1.1395 0.62286 2.1224 1.5424 2.6578zm1.5424-1.0506c-0.85104 0-1.5424-0.68914-1.5424-1.5424 0-0.85103 0.69141-1.5424 1.5424-1.5424 0.85331 0 1.5424 0.69141 1.5424 1.5424 0 0.85331-0.68914 1.5424-1.5424 1.5424z"
    fill="#c4d9c7" />
  <path id="compare-line" class="line" d="m31.635 197.45v-60.87" fill="none" stroke="#a371f7" stroke-linecap="round"
    stroke-width="1.6" />
  <path id="merge"
    d="m37.018 119.43c-1.3288 0-2.4728 0.73416-3.0866 1.811-0.16043-0.0113-0.31738-0.0252-0.48479-0.0252-3.6569 0-7.1272-2.7858-8.3932-6.2343 0.76119-0.6548 1.2503-1.6139 1.2503-2.6943 0-1.9714-1.6-3.5714-3.5714-3.5714s-3.5714 1.6-3.5714 3.5714c0 1.3175 0.7211 2.4571 1.7857 3.077v11.704c-1.0646 0.61908-1.7857 1.7578-1.7857 3.0762 0 1.9706 1.6 3.5714 3.5714 3.5714s3.5714-1.6009 3.5714-3.5714c0-1.3184-0.72109-2.4571-1.7857-3.0762v-6.4252c2.3481 2.4841 5.5908 4.1443 8.9286 4.1443 0.17787 0 0.32436-0.0123 0.48479-0.0174 0.61733 1.0725 1.7613 1.8032 3.0866 1.8032 1.9706 0 3.5714-1.6009 3.5714-3.5714 0-1.9714-1.6009-3.5714-3.5714-3.5714zm-14.286 12.5c-0.98526 0-1.7857-0.79868-1.7857-1.7857 0-0.98528 0.80045-1.7857 1.7857-1.7857 0.9879 0 1.7857 0.80044 1.7857 1.7857 0 0.98702-0.79782 1.7857-1.7857 1.7857zm0-17.857c-0.98526 0-1.7857-0.79783-1.7857-1.7857 0-0.98788 0.80045-1.7857 1.7857-1.7857 0.9879 0 1.7857 0.79783 1.7857 1.7857 0 0.98789-0.79782 1.7857-1.7857 1.7857zm14.286 10.714c-0.98527 0-1.7857-0.79868-1.7857-1.7857 0-0.98789 0.80045-1.7857 1.7857-1.7857 0.98703 0 1.7857 0.79783 1.7857 1.7857 0 0.98703-0.79868 1.7857-1.7857 1.7857z"
    fill="#a371f7" stroke-width=".027902" />
  <path id="merge-line" class="line" d="m31.635 104.29v-60.87" fill="none" stroke="#3fb950" stroke-linecap="round"
    stroke-width="1.6" />
  <g id="name" fill="none" stroke="#19fef4" stroke-linecap="round" stroke-width="1.6">
    <path
      d="m107.41 120.01q-8.8229 0-15.385-2.8438l0.94792-7.3646q4.0104 1.7135 7.7292 2.625 3.7552 0.875 7.2917 0.875 10.062 0 10.062-7.2188 0-4.6302-4.7396-6.7812l-8.9688-4.0833q-5.2865-2.4063-8.1302-5.7969-2.8073-3.3906-2.8073-8.4219 0-6.7812 4.0833-10.5t11.557-3.7188q5.2136 0 9.224 1.5312t7.7292 4.9948l-5.1042 5.1771q-3.2083-2.625-6.0156-3.7917-2.7708-1.2031-5.7969-1.2031-3.7552 0-5.8333 1.8229-2.0417 1.7865-2.0417 5.3229 0 2.5156 1.349 4.1198 1.349 1.5677 3.974 2.8073l7.5833 3.5729q5.7604 2.6979 8.75 6.0885t2.9896 8.7135q0 14.073-18.448 14.073z" />
    <path
      d="m132.72 119.28 14.948-51.771h10.573l14.948 51.771h-7.6562l-3.3906-12.615h-18.375l-3.3906 12.615zm12.906-19.542h14.656l-7-25.958h-0.65625z" />
    <path d="m192.91 119.28v-44.844h-15.167v-6.9271h37.917v6.9271h-15.167v44.844z" />
    <path d="m234.8 119.28-14.583-51.771h7.8021l12.104 45.573h0.65625l12.104-45.573h7.8021l-14.583 51.771z" />
    <path d="m268.16 119.28v-51.771h34.271v6.9271h-26.688v15.458h20.125v6.9271h-20.125v15.531h26.688v6.9271z" />
    <path d="m311.91 119.28v-51.771h34.271v6.9271h-26.688v15.458h20.125v6.9271h-20.125v15.531h26.688v6.9271z" />
    <path
      d="m354.93 119.28v-51.771h17.792q8.0573 0 12.432 4.0833 4.4115 4.0833 4.4115 11.594 0 5.5781-2.2604 9.4062-2.2604 3.7917-6.526 5.5781l10.682 21.109h-8.75l-9.3698-19.688q-0.32812 0-0.61979 0h-10.208v19.688zm7.5833-26.615h10.208q4.3385 0 6.7448-2.2969 2.4427-2.2969 2.4427-6.4531 0-4.5573-2.4427-7-2.4063-2.4792-6.7448-2.4792h-10.208z" />
    <path
      d="m457.41 120.01q-8.8229 0-15.385-2.8438l0.94792-7.3646q4.0104 1.7135 7.7292 2.625 3.7552 0.875 7.2917 0.875 10.063 0 10.063-7.2188 0-4.6302-4.7396-6.7812l-8.9688-4.0833q-5.2865-2.4063-8.1302-5.7969-2.8073-3.3906-2.8073-8.4219 0-6.7812 4.0833-10.5t11.557-3.7188q5.2136 0 9.224 1.5312t7.7292 4.9948l-5.1042 5.1771q-3.2083-2.625-6.0156-3.7917-2.7708-1.2031-5.7969-1.2031-3.7552 0-5.8333 1.8229-2.0417 1.7865-2.0417 5.3229 0 2.5156 1.349 4.1198 1.349 1.5677 3.974 2.8073l7.5833 3.5729q5.7604 2.6979 8.75 6.0885t2.9896 8.7135q0 14.073-18.448 14.073z" />
    <path d="m487.2 119.28v-6.9271h11.922v-37.917h-11.922v-6.9271h31.5v6.9271h-11.995v37.917h11.995v6.9271z" />
    <path
      d="m553.41 119.28-14.875-39.375h-0.72917v39.375h-7.5833v-51.771h9.7708l14.875 39.375h0.72917v-39.375h7.5833v51.771z" />
    <path
      d="m594.17 120.01q-23.188 0-23.188-26.688 0-12.651 6.0156-19.578 6.0156-6.9636 16.88-6.9636 5.4323 0 9.5156 1.7135 4.0833 1.6771 6.0156 4.776l-5.4323 5.3958q-1.6771-2.4792-4.2292-3.8281-2.5156-1.349-5.4323-1.349-7.3646 0-11.448 5.1042-4.0833 5.0677-4.0833 14.365 0 20.344 16.26 20.344 1.7135 0 3.2083-0.18229 1.5312-0.1823 2.8438-0.47396v-12.323h-10.281v-6.9271h17.5v24.427q-1.5312 0.47396-5.3958 1.349-3.8281 0.83854-8.75 0.83854z" />
    <path d="m643.39 119.28v-22.313h-18.375v22.313h-7.5833v-51.771h7.5833v22.531h18.375v-22.531h7.5833v51.771z" />
  </g>
  <g id="category" fill="#fe42f9" stroke-linecap="round" stroke-width="1.6">
    <path d="m166.88 169.84v-20.339h13.464v2.7214h-10.484v6.9323h7.9062v2.7214h-7.9062v7.9635z" />
    <path
      d="m188.6 170.12q-2.3919 0-3.7096-1.418-1.3034-1.4323-1.3034-4.0247v-10.026h3.0365v10.026q0 1.3034 0.74479 2.0195 0.74479 0.70183 2.0911 0.70183 1.6615 0 2.5065-1.0456 0.84505-1.0599 0.84505-3.5378v-8.164h3.0365v12.432l2.0911 0.31511v2.4349l-4.8698 0.14323-0.21484-3.0651h-0.27213q-0.35808 1.5469-1.4036 2.3776t-2.5781 0.83073z" />
    <path
      d="m209.54 170.12q-2.6354 0-3.8099-1.4323t-1.1745-4.5833v-13.091h-4.4687v-2.6641h7.5052v15.612q0 1.2031 0.22916 1.9622 0.22917 0.75911 0.88802 1.1172 0.67318 0.35808 1.9766 0.35808 1.1888 0 3.0365-0.54427l0.34375 2.6641q-1.1602 0.3151-2.2344 0.45833-1.0599 0.14323-2.2917 0.14323z" />
    <path
      d="m226.72 170.12q-2.6354 0-3.8099-1.4323t-1.1745-4.5833v-13.091h-4.4687v-2.6641h7.5052v15.612q0 1.2031 0.22916 1.9622 0.22917 0.75911 0.88802 1.1172 0.67318 0.35808 1.9766 0.35808 1.1888 0 3.0365-0.54427l0.34375 2.6641q-1.1602 0.3151-2.2344 0.45833-1.0599 0.14323-2.2917 0.14323z" />
    <path
      d="m258.13 170.12q-3.4662 0-6.0443-1.1172l0.3724-2.8932q1.5755 0.67317 3.0364 1.0312 1.4753 0.34375 2.8646 0.34375 3.9531 0 3.9531-2.8359 0-1.819-1.862-2.6641l-3.5234-1.6042q-2.0768-0.94532-3.194-2.2774-1.1029-1.332-1.1029-3.3086 0-2.6641 1.6042-4.125t4.5404-1.4609q2.0482 0 3.6237 0.60157 1.5755 0.60156 3.0365 1.9622l-2.0052 2.0338q-1.2604-1.0312-2.3633-1.4896-1.0885-0.47265-2.2773-0.47265-1.4753 0-2.2917 0.71614-0.80209 0.70182-0.80209 2.0912 0 0.98828 0.52995 1.6185 0.52995 0.61589 1.5612 1.1029l2.9792 1.4036q2.263 1.0599 3.4375 2.3919t1.1745 3.4232q0 5.5286-7.2474 5.5286z" />
    <path
      d="m278.77 170.12q-3.4518 0-4.9987-1.4323-1.5326-1.4323-1.5326-4.5833v-6.7891h-3.8099v-2.664h3.8099v-4.5833h3.0365v4.5833h6.9036v2.664h-6.9036v6.6458q0 1.8047 0.87369 2.6211 0.88802 0.81641 2.9076 0.81641 0.71615 0 1.5182-0.0716 0.80208-0.0859 1.8333-0.21484l0.34375 2.6641q-1.0026 0.17187-1.9622 0.25781-0.94531 0.0859-2.0195 0.0859z" />
    <path
      d="m296.33 169.98-0.14323-3.3516h-0.30078q-0.17188 1.7474-1.4896 2.6211-1.3034 0.8737-3.4232 0.8737-2.3776 0-3.681-1.1458t-1.3034-3.237q0-2.4062 1.7904-3.6953 1.8047-1.2891 5.0846-1.2891 1.6328 0 2.8646 0.24349v-0.70182q0-1.5182-1.0742-2.22-1.0599-0.71615-3.1654-0.77344l-3.638-0.10026 0.28646-2.6927 3.0651 0.043q3.7669 0.0573 5.5859 1.6328 1.8333 1.5612 1.8333 4.569v6.3307l2.5781 0.31511v2.4349zm-0.60157-6.6458q-0.73046-0.11458-1.4609-0.1289-0.71615-0.0143-1.4609-0.0143-3.9531 0-3.9531 2.4062 0 1.0026 0.67318 1.5469 0.6875 0.54427 1.9336 0.54427 1.418 0 2.3633-0.48697 0.95963-0.48698 1.4323-1.2461 0.47265-0.75911 0.47265-1.5612z" />
    <path
      d="m311.86 170.12q-3.8815 0-6.0013-2.0338-2.1055-2.0482-2.1055-5.8724 0-3.724 1.9909-5.7865 2.0052-2.0625 5.7148-2.0625 2.22 0 3.7956 0.83073 1.5898 0.8164 2.263 2.3203l-2.3346 1.7617q-0.64453-1.0456-1.6471-1.6185-1.0026-0.57291-2.1914-0.57291-2.1484 0-3.3372 1.3034-1.1888 1.2891-1.1888 3.681 0 2.5924 1.3893 3.9674 1.4036 1.3607 3.9961 1.3607 1.0599 0 2.1198-0.10026t2.0625-0.27214l0.34375 2.6641q-1.1745 0.25781-2.4349 0.34375-1.2461 0.0859-2.4349 0.0859z" />
    <path
      d="m321.28 169.84v-21.484h3.0364v13.005h0.83073q1.8906 0 3.1081-0.64453 1.2174-0.65885 1.9049-2.1341 0.70183-1.4753 1.0312-3.9245h3.151q-0.70182 5.5859-3.4948 7.8346l4.4688 7.3476h-3.7526l-3.5091-6.0013q-1.0169 0.24349-2.1914 0.24349h-1.5469v5.7578z" />
    <path
      d="m355.95 169.84-2.2917-20.339h3.0078l1.7188 18.047h0.28646l1.8763-12.891h2.8646l1.8476 12.891h0.28646l1.7188-18.047h3.0078l-2.2917 20.339h-4.4258l-1.5039-12.346h-0.17187l-1.5039 12.346z" />
    <path
      d="m380.47 170.12q-3.8815 0-6.0013-2.0338-2.1055-2.0482-2.1055-5.8724 0-3.724 1.7904-5.7865t5.056-2.0625q3.0794 0 4.7552 1.862 1.6901 1.862 1.6901 5.4141 0 1.0456-0.0859 1.9479h-10.255q0.40105 1.9049 1.8047 2.8932 1.4036 0.97396 3.6953 0.97396 0.94531 0 1.862-0.10026 0.91667-0.11459 1.862-0.30078l0.3724 2.6641q-1.3464 0.25781-2.4635 0.32942-1.1172 0.0716-1.9766 0.0716zm-5.2708-8.8516h7.7057q0-2.0482-0.97396-3.1367-0.97395-1.1029-2.6927-1.1029-1.7617 0-2.8073 1.1029t-1.2318 3.1367z" />
    <path
      d="m394.14 170.12q-1.0312 0-2.0338-0.0859-1.0026-0.0716-2.0338-0.20052v-21.484h3.0364v9.0521h0.28646q0.21485-3.0364 3.724-3.0364 3.0364 0 4.6979 1.7904 1.6614 1.7904 1.6614 5.0846 0 4.2253-2.4492 6.5599-2.4349 2.3203-6.8893 2.3203zm-1.0312-8.8229v6.2018q0.40104 0.0286 0.81641 0.043 0.41536 0 0.8164 0 2.7357 0 4.2253-1.6471 1.5039-1.6471 1.5039-4.6549 0-2.0625-0.91666-3.1797-0.90234-1.1172-2.5781-1.1172-3.8672 0-3.8672 4.3542z" />
    <path
      d="m424.12 169.84v-20.339h4.9271q9.3099 0 9.3099 10.456 0 9.8828-9.3099 9.8828zm2.9792-2.7214h1.9479q6.3021 0 6.3021-7.1614 0-7.7344-6.3021-7.7344h-1.9479z" />
    <path
      d="m449.22 170.12q-3.8815 0-6.0013-2.0338-2.1055-2.0482-2.1055-5.8724 0-3.724 1.7904-5.7865t5.056-2.0625q3.0794 0 4.7552 1.862 1.6901 1.862 1.6901 5.4141 0 1.0456-0.0859 1.9479h-10.255q0.40104 1.9049 1.8047 2.8932 1.4036 0.97396 3.6953 0.97396 0.94531 0 1.862-0.10026 0.91666-0.11459 1.862-0.30078l0.37239 2.6641q-1.3464 0.25781-2.4635 0.32942-1.1172 0.0716-1.9766 0.0716zm-5.2708-8.8516h7.7057q0-2.0482-0.97395-3.1367-0.97396-1.1029-2.6927-1.1029-1.7617 0-2.8073 1.1029t-1.2318 3.1367z" />
    <path d="m463.07 169.84-5.4284-15.182h3.237l4.082 12.604h0.25781l4.082-12.604h3.237l-5.4284 15.182z" />
    <path
      d="m483.59 170.12q-3.8815 0-6.0013-2.0338-2.1055-2.0482-2.1055-5.8724 0-3.724 1.7904-5.7865t5.056-2.0625q3.0794 0 4.7552 1.862 1.6901 1.862 1.6901 5.4141 0 1.0456-0.0859 1.9479h-10.255q0.40104 1.9049 1.8047 2.8932 1.4036 0.97396 3.6953 0.97396 0.94531 0 1.862-0.10026 0.91666-0.11459 1.862-0.30078l0.37239 2.6641q-1.3464 0.25781-2.4635 0.32942-1.1172 0.0716-1.9766 0.0716zm-5.2708-8.8516h7.7057q0-2.0482-0.97395-3.1367-0.97396-1.1029-2.6927-1.1029-1.7617 0-2.8073 1.1029t-1.2318 3.1367z" />
    <path
      d="m501.72 170.12q-2.6354 0-3.8099-1.4323t-1.1745-4.5833v-13.091h-4.4687v-2.6641h7.5052v15.612q0 1.2031 0.22916 1.9622 0.22917 0.75911 0.88802 1.1172 0.67318 0.35808 1.9766 0.35808 1.1888 0 3.0365-0.54427l0.34375 2.6641q-1.1602 0.3151-2.2344 0.45833-1.0599 0.14323-2.2917 0.14323z" />
    <path
      d="m516.65 170.12q-3.151 0-4.8984-2.0625t-1.7474-5.8151q0-3.7669 1.7474-5.8151 1.7474-2.0625 4.8984-2.0625 3.1654 0 4.8984 2.0625 1.7474 2.0482 1.7474 5.8151 0 3.7526-1.7474 5.8151-1.7331 2.0625-4.8984 2.0625zm0-2.7214q1.6758 0 2.5781-1.3464 0.91666-1.3464 0.91666-3.8099 0-2.4779-0.91666-3.8099-0.90235-1.3464-2.5781-1.3464t-2.5924 1.3464q-0.90234 1.332-0.90234 3.8099 0 2.4635 0.90234 3.8099 0.91666 1.3464 2.5924 1.3464z" />
    <path
      d="m527.65 176.42v-21.771h2.75l0.24349 2.75h0.18619q0.20053-1.4323 1.2891-2.2344 1.1029-0.80208 2.8789-0.80208 2.9935 0 4.526 2.0338 1.5326 2.0338 1.5326 5.987 0 3.8099-1.5326 5.7721t-4.526 1.9622q-1.7474 0-2.8216-0.80208-1.0599-0.80209-1.2031-2.2344h-0.28645v9.3385zm3.0365-13.664q0 4.7838 3.638 4.7838 3.724 0 3.724-5.1562 0-5.4427-3.724-5.4427-3.638 0-3.638 4.7838z" />
    <path
      d="m552.34 170.12q-3.8815 0-6.0013-2.0338-2.1055-2.0482-2.1055-5.8724 0-3.724 1.7904-5.7865t5.056-2.0625q3.0794 0 4.7552 1.862 1.6901 1.862 1.6901 5.4141 0 1.0456-0.0859 1.9479h-10.255q0.40104 1.9049 1.8047 2.8932 1.4036 0.97396 3.6953 0.97396 0.94531 0 1.862-0.10026 0.91666-0.11459 1.862-0.30078l0.3724 2.6641q-1.3464 0.25781-2.4635 0.32942-1.1172 0.0716-1.9766 0.0716zm-5.2708-8.8516h7.7057q0-2.0482-0.97395-3.1367-0.97396-1.1029-2.6927-1.1029-1.7617 0-2.8073 1.1029t-1.2318 3.1367z" />
    <path
      d="m567.18 163.3v3.8672h3.724v2.6641h-10.141v-2.6641h3.3802v-9.8542h-2.8073v-2.664h5.2708l0.51562 3.8958h0.34375q0.25781-4.1823 4.1823-4.1823 2.349 0 3.4088 1.3464 1.0599 1.3464 1.0599 4.3542h-3.0078q0-1.6614-0.5013-2.3919-0.48698-0.73047-1.5898-0.73047-1.9336 0-2.8932 1.6615-0.94532 1.6471-0.94532 4.6979z" />
  </g>
</svg>