<svg version="1.1" viewBox="0 0 790 150" xmlns="http://www.w3.org/2000/svg">
 <g transform="translate(-5.9608 -17.102)">
  <g transform="translate(-26.022 -53.212)">
   <text x="214.786" y="102.73733" fill="#ea2845" font-family="Ubuntu" font-size="29.333px" font-weight="500" stroke-linecap="round" stroke-width="5" xml:space="preserve"><tspan x="214.786" y="102.73733">LIBRARIES AND FRAMEWORKS</tspan></text>
   <g transform="translate(4.2883 12.433)">
    <g transform="translate(0 .066182)">
     <rect x="31.805" y="108.39" width="143.7" height="40" fill="#3fa037" stroke-linecap="round" stroke-width="5.1087"/>
     <path d="m50.509 125.91c-1.3165-5.7957-4.4218-7.7002-4.7554-8.4288-0.36692-0.5139-0.76408-1.4927-0.76408-1.4927-0.0021 0.0198-0.0042 0.0323-0.0052 0.051v0.0136h-1e-3c-0.0021 0.0157-0.0031 0.026-0.0042 0.0406v0.0157h-0.0021c0 0.0104-0.0021 0.0187-0.0021 0.0271v0.0271h-0.0031c-1e-3 8e-3 -1e-3 0.0188-0.0031 0.026v0.0219h-0.0021c0 7e-3 0 0.0157-0.0021 0.0219v0.0208h-0.0021c0 0.0104-1e-3 0.0229-0.0021 0.0333v2e-3c-0.0031 0.0178-0.0063 0.0354-0.0094 0.0521v8e-3h-0.0021c-1e-3 4e-3 -0.0031 8e-3 -0.0031 0.0125v0.0178h-0.0031v0.0229h-0.0053v0.0188h-0.0052v0.0219h-0.0042v0.0198h-0.0042v0.0177h-0.0063v0.0146h-0.0042v0.0188h-0.0042v0.0146h-0.0052v0.0136h-0.0032v0.0157h-0.0042c-1e-3 8.4e-4 -1e-3 3e-3 -1e-3 4e-3v0.0104h-0.0031c-1e-3 2e-3 -1e-3 4e-3 -1e-3 6e-3v7e-3h-0.0021c-0.0011 3e-3 -0.0021 8e-3 -0.0021 0.0104-0.0031 8e-3 -0.0073 0.0146-0.01042 0.0219v2e-3c-0.0021 2e-3 -0.0042 5e-3 -0.0053 8e-3v8e-3h-0.0042v8e-3h-0.0053v8e-3h-0.0031v0.0104h-0.0063v0.0146h-0.0042v4e-3h-0.0042v8e-3h-0.0042v0.0114h-0.0042v8e-3h-0.0063v0.0115h-0.0042v8e-3h-0.0053v8e-3h-0.0031v0.0104h-0.0052v8e-3h-0.0042v6e-3h-0.0042v8e-3h-0.0063v9e-3h-0.0042v6e-3h-0.0052v8e-3h-0.0042v0.0115h-0.0052v4e-3h-0.0031v8e-3h-0.0063v4e-3h-0.0042v0.0104h-0.0042v4e-3h-0.0042v8e-3h-0.0052v6e-3h-0.0031l-0.0021 4e-3v4e-3h-0.0021c-1e-3 2e-3 -0.0021 2e-3 -0.0021 4e-3v8.3e-4h-1e-3c-1e-3 3e-3 -0.0021 5e-3 -0.0042 7e-3v3e-3h-1e-3c-0.0053 6e-3 -0.0083 0.0125-0.0125 0.0188v8.4e-4c-0.0021 2e-3 -0.0073 7e-3 -0.0094 0.0104v2e-3h-1e-3c-1e-3 8.4e-4 -0.0031 2e-3 -0.0031 3e-3v3e-3h-0.0021l-0.0032 3e-3v8.3e-4h-1e-3c0 8.3e-4 -0.0021 2e-3 -0.0031 4e-3v4e-3h-0.0031l-0.0021 2e-3v2e-3h-0.0021c0 2e-3 -0.0021 2e-3 -0.0021 3e-3v3e-3h-0.0042c0 8.3e-4 -1e-3 2e-3 -0.0021 3e-3v6e-3h-0.0031v4e-3h-0.0042v6e-3h-0.0042v8e-3h-0.0052v-8e-3h-0.0053v4e-3h-0.0042v6e-3h-0.0053v8e-3h-0.0052v4e-3h-0.0042v6e-3h-0.0042v4e-3h-0.0042v8e-3h-0.0063v4e-3h-0.0042v6e-3h-0.0052v4e-3h-0.0042v5e-3h-0.0053v0.0104h-0.0021v4e-3h-0.0063v5e-3h-0.0042v2e-3h-0.0042v4e-3h-0.0052v0.0104h-0.0042v4e-3h-0.0052v4e-3h-0.0042v6e-3h-0.0052v4e-3h-0.0052v4e-3h-0.0042v4e-3h-0.0042v0.0104h-0.0042v5e-3h-0.0063v4e-3h-0.0042v4e-3h-0.0052v6e-3h-0.0042v4e-3h-0.0052v7e-3h-0.0042v4e-3h-0.0063v7e-3h-0.0021v4e-3h-0.0042v4e-3h-0.0053v4e-3h-0.0042v6e-3h-0.0053v4e-3h-0.0031c-1e-3 8.4e-4 -1e-3 2e-3 -1e-3 2e-3v2e-3h-0.0021l-0.0042 4e-3s-0.0021 2e-3 -0.0042 3e-3v6e-3h-0.0042v5e-3h-0.0042v4e-3h-0.0042v4e-3h-0.0031l-0.0031 3e-3v3e-3h-0.0021l-0.0021 2e-3v3e-3h-0.0021c-0.0052 6e-3 -0.0073 0.0104-0.0146 0.0167-0.0021 2e-3 -0.0083 8e-3 -0.0125 0.0104-0.01251 8e-3 -0.02814 0.0219-0.04066 0.0333-0.0083 5e-3 -0.01668 0.0125-0.02293 0.0178v8.3e-4h-1e-3c-0.01668 0.0136-0.03231 0.026-0.05108 0.0406v8.3e-4c-0.02502 0.0208-0.04899 0.0406-0.07714 0.0646v-8.4e-4h-0.0021c-0.05941 0.049-0.12196 0.10425-0.19389 0.16575v8.3e-4h-1e-3c-0.17616 0.15428-0.38569 0.35233-0.62023 0.59208l-0.01564 0.0157-0.0042 4e-3c-1.4177 1.4666-3.6515 4.523-3.8871 9.4618-0.02085 0.40863-0.01668 0.80578 0.0063 1.1925v9e-3c0.11362 1.9462 0.72447 3.6077 1.4885 4.9576v8.3e-4c0.30438 0.53788 0.63274 1.0268 0.96526 1.4646v8.3e-4c1.1487 1.5167 2.3214 2.4152 2.6206 2.6331 0.4597 1.0664 0.41696 2.8968 0.41696 2.8968l0.6713 0.22411s-0.13655-1.7731 0.05524-2.6289c0.05941-0.2679 0.20014-0.49619 0.3638-0.69007 0.11049-0.0781 0.43781-0.31377 0.83079-0.67235 0.01877-0.0197 0.02919-0.0375 0.04587-0.0563 1.5855-1.4781 4.5469-5.1182 3.5316-11.048z" fill="#ffffff" stroke-width="1.0424"/>
     <text x="56.013336" y="135.79549" fill="#ffffff" font-family="Ubuntu" font-size="21.333px" font-weight="500" stroke-linecap="round" stroke-width="5" xml:space="preserve"><tspan x="56.013336" y="135.79549">MONGODB</tspan></text>
    </g>
    <g transform="translate(-53.292 .066182)">
     <rect x="244.62" y="108.39" width="143.7" height="40" fill="#61dbfb" stroke-linecap="round" stroke-width="5.1087"/>
     <text x="301.32645" y="135.79546" fill="#000000" font-family="Ubuntu" font-size="21.333px" font-weight="500" stroke-linecap="round" stroke-width="5" xml:space="preserve"><tspan x="301.32645" y="135.79546">REACT</tspan></text>
     <path d="m276.7 125.89a2.5043 2.5043 0 1 0 0 5.0085 2.5043 2.5043 0 1 0 0-5.0085zm-7.0152 7.4859-0.5526-0.14049c-4.1188-1.0408-6.4814-2.8075-6.4814-4.8458 0-2.0383 2.3626-3.805 6.4814-4.8458l0.5526-0.13932 0.15572 0.54792a27.548 27.548 0 0 0 1.5958 4.189l0.11825 0.24938-0.11825 0.24937a27.287 27.287 0 0 0-1.5958 4.189zm-0.809-8.5524c-3.1306 0.87925-5.0518 2.2245-5.0518 3.5662 0 1.3405 1.9212 2.6857 5.0518 3.5662a29.211 29.211 0 0 1 1.3838-3.5662 28.979 28.979 0 0 1-1.3838-3.5662zm14.839 8.5524-0.15572-0.54909a27.346 27.346 0 0 0-1.5969-4.1878l-0.11825-0.24937 0.11825-0.24938a27.419 27.419 0 0 0 1.5969-4.189l0.15572-0.54792 0.55377 0.13932c4.1176 1.0408 6.4802 2.8075 6.4802 4.847 0 2.0395-2.3626 3.805-6.4802 4.8458zm-0.57485-4.9863c0.56197 1.2164 1.0268 2.4118 1.3838 3.5662 3.1318-0.88042 5.0518-2.2256 5.0518-3.5662 0-1.3417-1.9212-2.6857-5.0518-3.5662a29.021 29.021 0 0 1-1.3838 3.5662zm-14.273-3.572-0.15571-0.54675c-1.1579-4.0813-0.80666-7.0059 0.96354-8.0268 1.7362-1.0022 4.5238 0.18147 7.4449 3.1798l0.39806 0.4086-0.39806 0.40859a27.574 27.574 0 0 0-2.8356 3.4737l-0.15805 0.22595-0.27513 0.0234a27.697 27.697 0 0 0-4.4314 0.71417zm2.2198-7.7622c-0.31376 0-0.59124 0.0679-0.82539 0.20254-1.1637 0.67085-1.3698 3.003-0.56782 6.15a29.412 29.412 0 0 1 3.7851-0.58656 29.09 29.09 0 0 1 2.4024-2.9784c-1.8264-1.7784-3.5556-2.7876-4.7943-2.7876zm11.226 23.839c-1e-3 0-1e-3 0 0 0-1.6683 0-3.8108-1.2562-6.0341-3.5392l-0.39806-0.40859 0.39806-0.4086a27.548 27.548 0 0 0 2.8344-3.4748l0.15805-0.22596 0.27396-0.0234a27.665 27.665 0 0 0 4.4337-0.71299l0.5526-0.13933 0.15688 0.54792c1.1556 4.079 0.80549 7.0047-0.96471 8.0244a2.7864 2.7864 0 0 1-1.4108 0.3606zm-4.7955-3.9584c1.8264 1.7784 3.5556 2.7876 4.7943 2.7876h1e-3c0.31259 0 0.59124-0.0679 0.82422-0.20254 1.1637-0.67085 1.371-3.0042 0.56782-6.1512a29.293 29.293 0 0 1-3.7863 0.58655 28.887 28.887 0 0 1-2.4012 2.9796zm7.0141-12.119-0.5526-0.13932a27.488 27.488 0 0 0-4.4337-0.71417l-0.27396-0.0234-0.15805-0.22595a27.412 27.412 0 0 0-2.8344-3.4737l-0.39806-0.40859 0.39806-0.4086c2.9199-2.9972 5.7063-4.1808 7.4449-3.1798 1.7702 1.0209 2.1214 3.9455 0.96471 8.0256zm-4.6128-1.9962c1.337 0.12176 2.6073 0.31962 3.7863 0.58656 0.80315-3.147 0.59592-5.4792-0.56782-6.15-1.1567-0.66851-3.3308 0.35591-5.6197 2.585a29.092 29.092 0 0 1 2.4012 2.9784zm-8.8323 18.073a2.7864 2.7864 0 0 1-1.4119-0.3606c-1.7702-1.0197-2.1214-3.9443-0.96354-8.0244l0.15454-0.54792 0.5526 0.13933c1.3522 0.34069 2.8438 0.5807 4.4314 0.71299l0.27513 0.0234 0.15688 0.22596a27.625 27.625 0 0 0 2.8356 3.4748l0.39806 0.4086-0.39806 0.40859c-2.2221 2.283-4.3646 3.5392-6.0306 3.5392zm-1.3932-7.5245c-0.80315 3.147-0.59592 5.4804 0.56782 6.1512 1.1556 0.65914 3.3285-0.35708 5.6197-2.585a29.267 29.267 0 0 1-2.4024-2.9796 29.241 29.241 0 0 1-3.7851-0.58655zm7.0059 0.73524c-0.96355 0-1.954-0.0421-2.9456-0.1241l-0.27513-0.0234-0.15806-0.22596a35.577 35.577 0 0 1-1.5805-2.4844 35.537 35.537 0 0 1-1.3651-2.6085l-0.11708-0.24937 0.11708-0.24938a35.474 35.474 0 0 1 1.3651-2.6085c0.4847-0.83827 1.0174-1.6742 1.5805-2.4844l0.15806-0.22596 0.27513-0.0234a34.871 34.871 0 0 1 5.8925 0l0.27396 0.0234 0.15689 0.22596a35.13 35.13 0 0 1 2.9468 5.0928l0.11825 0.24938-0.11825 0.24937a34.655 34.655 0 0 1-2.9468 5.0928l-0.15689 0.22596-0.27396 0.0234c-0.99164 0.082-1.9833 0.1241-2.9468 0.1241zm-2.5722-1.2691c1.7327 0.12995 3.4116 0.12995 5.1455 0a33.959 33.959 0 0 0 2.571-4.4466 33.466 33.466 0 0 0-2.5722-4.4466 33.989 33.989 0 0 0-5.1444 0 33.34 33.34 0 0 0-2.5722 4.4466 34.086 34.086 0 0 0 2.5722 4.4466z" stroke-width="1.1708"/>
    </g>
    <g transform="translate(-159.87 .066182)">
     <rect x="670.24" y="108.39" width="143.7" height="40" fill="#764abc" stroke-linecap="round" stroke-width="5.1087"/>
     <text x="726.948" y="135.69946" fill="#ffffff" font-family="Ubuntu" font-size="21.333px" font-weight="500" stroke-linecap="round" stroke-width="5" xml:space="preserve"><tspan x="726.948" y="135.69946">REDUX</tspan></text>
     <path d="m704.11 133.34c0.95457-0.0824 1.6949-0.92271 1.6466-1.9267-0.0505-1.004-0.87329-1.8103-1.8762-1.8103h-0.067c-1.0359 0.0341-1.8432 0.90514-1.8103 1.9432 0.0329 0.52616 0.24825 0.95457 0.54264 1.2665-1.1512 2.2387-2.8791 3.8842-5.4967 5.2672-1.7608 0.92051-3.6205 1.2676-5.4308 1.0205-1.5137-0.2131-2.6978-0.88976-3.4228-1.975-1.0853-1.6466-1.1842-3.4228-0.28011-5.2001 0.66018-1.2841 1.6466-2.2222 2.3057-2.6836-0.16477-0.42731-0.36249-1.1512-0.46135-1.6938-4.8728 3.4898-4.3774 8.2616-2.8967 10.517 1.1029 1.6455 3.358 2.6978 5.8263 2.6978 0.65798 0 1.35-0.0483 2.0245-0.2131 4.2796-0.82275 7.5212-3.3899 9.3809-7.1752zm5.8746-4.1148c-2.5495-2.9955-6.303-4.641-10.583-4.641h-0.56022c-0.27791-0.60855-0.91942-0.98752-1.6444-0.98752h-0.0494c-1.0358 0-1.8432 0.88975-1.8092 1.9256 0.0329 0.98642 0.87218 1.8103 1.8762 1.8103h0.0813c0.74146-0.0329 1.383-0.49431 1.6455-1.1523h0.60965c2.5364 0 4.9376 0.74037 7.1268 2.1881 1.6774 1.1029 2.8802 2.5506 3.5546 4.2796 0.59097 1.4148 0.55912 2.7978-0.0494 3.9512-0.93809 1.8092-2.5188 2.7648-4.6081 2.7648-1.3171 0-2.6001-0.41192-3.2592-0.70741-0.39435 0.32735-1.0534 0.87109-1.5313 1.2006 1.4478 0.65688 2.9131 1.0358 4.328 1.0358 3.2097 0 5.5945-1.8092 6.5007-3.5546 0.98642-1.975 0.90514-5.299-1.6136-8.1462zm-17.016 4.7058c0.0318 0.98752 0.87108 1.8103 1.8762 1.8103h0.0659c1.0534-0.0329 1.8597-0.90404 1.8103-1.9421 0-0.98752-0.85571-1.8092-1.8597-1.8092h-0.067c-0.0659 0-0.16367 0-0.24716 0.0319-1.3654-2.3046-1.9421-4.7739-1.7268-7.4377 0.13071-2.008 0.78979-3.7535 1.9739-5.2012 0.98752-1.2347 2.8472-1.8443 4.1149-1.8762 3.5546-0.067 5.0365 4.362 5.1507 6.1228l1.6455 0.49321c-0.37897-5.3979-3.7348-8.2297-6.9445-8.2297-3.012 0-5.7922 2.1892-6.9126 5.399-1.5302 4.2796-0.52616 8.3934 1.35 11.685-0.16367 0.2142-0.26254 0.59207-0.22958 0.95347z" fill="#ffffff" stroke-width="1.0985"/>
    </g>
    <g transform="translate(-106.58 .066182)">
     <rect x="457.43" y="108.39" width="143.7" height="40" fill="#000000" stroke-linecap="round" stroke-width="5.1087"/>
     <text x="511.19931" y="135.79546" fill="#ffffff" font-family="Ubuntu" font-size="21.333px" font-weight="500" stroke-linecap="round" stroke-width="5" xml:space="preserve"><tspan x="511.19931" y="135.79546">NEXT JS</tspan></text>
     <path d="m482.51 115.9c-0.0537 5e-3 -0.22486 0.022-0.3788 0.0342-3.5503 0.32009-6.8758 2.2357-8.982 5.1801-1.1728 1.6371-1.923 3.4941-2.2064 5.4611-0.10018 0.68667-0.1124 0.88945-0.1124 1.8204 0 0.93101 0.0122 1.1338 0.1124 1.8204 0.67927 4.6939 4.0194 8.6376 8.5496 10.099 0.81121 0.26142 1.6664 0.43983 2.6389 0.54731 0.3788 0.0416 2.0158 0.0416 2.3946 0 1.6786-0.1857 3.1007-0.60105 4.5032-1.317 0.21507-0.10999 0.25653-0.13925 0.22726-0.16373-0.0196-0.0147-0.9358-1.2437-2.0354-2.7293l-1.9987-2.7-2.5045-3.7066c-1.3781-2.0378-2.5119-3.7042-2.5216-3.7042-0.01-2e-3 -0.0195 1.6444-0.0245 3.6553-7e-3 3.521-0.01 3.6628-0.0537 3.7458-0.0635 0.11977-0.1124 0.16862-0.21502 0.22236-0.0782 0.0392-0.1466 0.0465-0.51556 0.0465h-0.42272l-0.1124-0.0708c-0.0733-0.0465-0.12705-0.10759-0.1637-0.17841l-0.0513-0.10999 5e-3 -4.8991 7e-3 -4.9015 0.0757-0.0953c0.0391-0.0513 0.12217-0.11728 0.18081-0.14905 0.10018-0.0489 0.13927-0.0537 0.56198-0.0537 0.49847 0 0.58154 0.0195 0.71104 0.16126 0.0367 0.0391 1.3928 2.0818 3.0152 4.5424 1.6224 2.4605 3.841 5.8202 4.9308 7.4695l1.9792 2.9981 0.10019-0.0659c0.88695-0.57668 1.8252-1.3977 2.568-2.2529 1.5809-1.8155 2.5998-4.0292 2.942-6.3896 0.10019-0.68656 0.11238-0.88935 0.11238-1.8204 0-0.9309-0.0122-1.1337-0.11238-1.8204-0.67928-4.6938-4.0195-8.6375-8.5496-10.099-0.79905-0.25901-1.6493-0.43738-2.6022-0.54489-0.23465-0.0244-1.8497-0.0513-2.0525-0.0318zm5.1165 7.56c0.11727 0.0587 0.21257 0.17104 0.24673 0.28832 0.0196 0.0635 0.0245 1.4221 0.0196 4.4837l-7e-3 4.3933-0.77457-1.1875-0.77707-1.1874v-3.1936c0-2.0647 0.01-3.2253 0.0245-3.2815 0.0391-0.13684 0.12457-0.24434 0.24184-0.30788 0.1002-0.0513 0.13686-0.0562 0.52055-0.0562 0.36161 0 0.42515 5e-3 0.50576 0.0489z" clip-path="url(#clipPath7823)" fill="#ffffff" stroke-width="1.0415"/>
    </g>
    <g transform="translate(596.43 -118.6)">
     <rect x="73.452" y="227.06" width="143.7" height="40" fill="#117cad" stroke-linecap="round" stroke-width="5.1087"/>
     <text x="133.31511" y="254.52435" fill="#ffffff" font-family="Ubuntu" font-size="21.333px" font-weight="500" stroke-linecap="round" stroke-width="5" xml:space="preserve"><tspan x="133.31511" y="254.52435">NPM</tspan></text>
     <path d="m119.22 234.56h-25v25h25zm-22.315 2.685h19.629v19.629h-4.95v-14.679h-4.9499v14.679h-9.729z" clip-rule="evenodd" fill="#ffffff" fill-rule="evenodd" stroke-width="1.0417"/>
    </g>
   </g>
   <g transform="translate(4.2883 -8.1343)">
    <g transform="translate(281.8 8.6682)">
     <rect x="228.56" y="170.26" width="143.7" height="40" fill="#117cad" stroke-linecap="round" stroke-width="5.1087"/>
     <text x="282.33264" y="197.66077" fill="#ffffff" font-family="Ubuntu" font-size="21.333px" font-weight="500" stroke-linecap="round" stroke-width="5" xml:space="preserve"><tspan x="282.33264" y="197.66077">YARN</tspan></text>
     <path d="m259.86 195.43c-1.9657 0.46875-2.4395 1.618-5.2419 2.3891 0 0-0.13609 0.20161-0.5242 0.29233-0.6754 0.16634-3.2208 0.30242-3.4526 0.30746-0.625 5e-3 -1.003-0.16129-1.1089-0.4133-0.32258-0.77117 0.46371-1.1089 0.46371-1.1089-0.40827-0.25202-0.45363-0.49899-0.49395-0.40827-0.12097 0.29234-0.18145 1.0131-0.50907 1.3357-0.44355 0.44859-1.2853 0.29738-1.7792 0.0403-0.54435-0.2873 0.0403-0.96775 0.0403-0.96775s-0.29234 0.17138-0.52923-0.18145c-0.30242-0.46875-0.8619-1.88 0.57964-3.125-0.0655-0.50907-0.23186-2.7066 2.0464-4.3145 0 0-1.0383-1.1492-0.65021-2.1825 0.25202-0.67541 0.35283-0.67037 0.43347-0.70061 0.2873-0.11089 0.56956-0.23185 0.77621-0.45867 1.0383-1.119 2.3589-0.90726 2.3589-0.90726s0.625-1.9052 1.2046-1.5322c0.17641 0.11592 0.82157 1.5423 0.82157 1.5423s0.68549-0.39819 0.76109-0.25202c0.41331 0.80645 0.46371 2.3438 0.28226 3.2812-0.30746 1.5423-1.0786 2.374-1.3911 2.8982-0.0706 0.12097 0.83165 0.50404 1.4012 2.0817 0.52419 1.4415 0.0554 2.6562 0.14113 2.7873 0.0403 0.0706 0.69052 0.0403 1.8347-0.66533 0.64516-0.39818 1.4163-0.85181 2.2883-0.85685 0.84174-0.0252 0.8871 0.96774 0.24698 1.119zm5.1462-4.496c0 6.9002-5.5998 12.5-12.5 12.5s-12.5-5.5998-12.5-12.5c0-6.9002 5.5998-12.5 12.5-12.5s12.5 5.5998 12.5 12.5zm-3.997 3.7903c-0.0857-0.68549-0.66533-1.1593-1.4113-1.1492-1.1089 0.0151-2.0413 0.58972-2.6613 0.96775-0.24194 0.15121-0.44859 0.26209-0.625 0.34274 0.15625-2.243-1.1341-3.6845-1.4466-4.002 0.39315-0.56955 0.92742-1.4012 1.1794-2.6814 0.21673-1.0938 0.15121-2.7974-0.34778-3.755-0.0806-0.15625-0.37299-0.56452-1.0585-0.37298-0.48891-1.0081-0.65524-1.1139-0.78629-1.1996-0.0554-0.0353-1.1895-0.82661-2.0867 1.4113-0.61492 0.0454-1.5776 0.26714-2.3942 1.1492-0.10081 0.11089-0.29738 0.19154-0.50907 0.27218h5e-3c-0.42339 0.15121-0.61996 0.49899-0.85182 1.124-0.32762 0.87702 0.0101 1.744 0.34275 2.3034-0.89718 0.80141-1.8649 2.006-1.7994 4.1583-1.7137 1.8145-0.59476 3.6794-0.28226 4.0121-0.0806 0.55948 0.18649 0.97783 0.60484 1.1996 0.63508 0.3377 1.5272 0.48387 2.2127 0.14113 0.24698 0.2621 0.69557 0.50907 1.5121 0.50907 0.34274 0 2.9234-0.14617 3.6593-0.32762 0.34275-0.0806 0.57964-0.22681 0.73589-0.35786 0.49395-0.15625 1.8548-0.61996 3.1351-1.4466 0.90726-0.58972 1.2198-0.71573 1.8952-0.87702 0.6502-0.16129 1.0585-0.76109 0.97783-1.4214z" fill="#ffffff" stroke-width=".050403"/>
    </g>
    <g transform="translate(226.11 6.4333)" stroke-linecap="round">
     <rect x="443.77" y="172.49" width="143.7" height="40" fill="#563d7c" stroke-width="5.1087"/>
     <text x="452.49768" y="199.89575" fill="#ffffff" font-family="Ubuntu" font-size="21.333px" font-weight="500" stroke-width="5" xml:space="preserve"><tspan x="452.49768" y="199.89575">BOOTSTRAP</tspan></text>
    </g>
    <g transform="translate(-299.58 5.006)">
     <rect x="650.42" y="173.92" width="143.7" height="40" fill="#663399" stroke-linecap="round" stroke-width="5.1087"/>
     <text x="704.19507" y="201.323" fill="#ffffff" font-family="Ubuntu" font-size="21.333px" font-weight="500" stroke-linecap="round" stroke-width="5" xml:space="preserve"><tspan x="704.19507" y="201.323">GATSBY</tspan></text>
     <path d="m676.01 181.42c-6.875 0-12.5 5.625-12.5 12.5s5.625 12.5 12.5 12.5 12.5-5.625 12.5-12.5-5.625-12.5-12.5-12.5zm-6.9638 19.464c-1.875-1.875-2.8575-4.375-2.8575-6.785l9.7325 9.6425c-2.5-0.0888-5-0.9825-6.875-2.8575zm9.1062 2.59-11.696-11.696c0.9825-4.375 4.9112-7.6788 9.5538-7.6788 3.3038 0 6.1612 1.6075 7.9462 4.0175l-1.3388 1.1612c-1.52-2.0538-3.9288-3.395-6.6075-3.395-3.4825 0-6.4288 2.2325-7.5888 5.3575l10.268 10.268c2.5888-0.8925 4.5538-3.125 5.1788-5.8025h-4.2862v-1.785h6.25c0 4.6425-3.3038 8.5712-7.6788 9.5538z" fill="#ffffff" stroke-width="1.25"/>
    </g>
    <g transform="translate(-251.95 -57.892)" stroke-linecap="round">
     <rect x="443.27" y="236.82" width="143.7" height="40" fill="#000000" stroke-width="5.1087"/>
     <text x="451.99838" y="264.22058" fill="#ffffff" font-family="Ubuntu" font-size="21.333px" font-weight="500" stroke-width="5" xml:space="preserve"><tspan x="451.99838" y="264.22058">EXPRESS JS</tspan></text>
    </g>
    <g transform="translate(-8.6306 1.0084)">
     <rect x="40.435" y="177.92" width="143.7" height="40" fill="#ea2845" stroke-linecap="round" stroke-width="5.1087"/>
     <text x="94.208366" y="205.32059" fill="#ffffff" font-family="Ubuntu" font-size="21.333px" font-weight="500" stroke-linecap="round" stroke-width="5" xml:space="preserve"><tspan x="94.208366" y="205.32059">NEST JS</tspan></text>
     <path d="m68.665 185.42c-0.18088 0-0.3499 0.0386-0.50409 0.089 0.33063 0.22239 0.51151 0.51151 0.60343 0.84213 6e-3 0.0445 0.0193 0.0771 0.0252 0.12306 6e-3 0.046 0.0148 0.0771 0.0148 0.11861 0.0267 0.57081-0.14827 0.64198-0.2728 0.97853-0.1883 0.43441-0.13641 0.90144 0.0889 1.2751a0.77097 0.77097 0 0 0 0.0771 0.14233c-0.24612-1.6398 1.1224-1.8874 1.3744-2.3989 0.0193-0.44775-0.34989-0.74576-0.64197-0.95333-0.27874-0.16902-0.53375-0.22239-0.76504-0.22239zm2.0609 0.37066c-0.0267 0.14826-6e-3 0.10971-0.0148 0.18829l-0.0148 0.16902-0.0445 0.15568c-0.0148 0.0519-0.0326 0.10378-0.0519 0.15567l-0.0712 0.14827c-0.0193 0.0267-0.0326 0.0519-0.0519 0.0771l-0.0386 0.0593-0.0979 0.12899c-0.0386 0.0386-0.0712 0.0845-0.11861 0.11861-0.0474 0.0341-0.0771 0.0771-0.12306 0.10971-0.1364 0.10378-0.29208 0.18088-0.43441 0.27873-0.0445 0.0326-0.089 0.0593-0.12899 0.0979a0.94888 0.94888 0 0 0-0.12306 0.10378c-0.0445 0.0386-0.0771 0.0771-0.11861 0.12306-0.0415 0.046-0.0712 0.0845-0.0978 0.12899l-0.089 0.1364-0.0712 0.14826-0.0519 0.14826-0.0445 0.16309c-6e-3 0.0267-6e-3 0.0593-0.0148 0.0845-9e-3 0.0252-6e-3 0.0519-0.0148 0.0771l-6e-3 0.16309c0 0.0386 0 0.0771 6e-3 0.11861 0 0.0519 6e-3 0.10378 0.0193 0.16309 0.0133 0.0593 0.0193 0.10378 0.0326 0.15567l0.0519 0.15568c0.0148 0.0326 0.0326 0.0652 0.0445 0.089l-1.4915-0.57823-0.75169-0.19274-0.40921-0.0978a12.039 12.039 0 0 0-1.1802-0.17495c-0.0148 0-0.0193-6e-3 -0.0326-6e-3l-1.1609-0.0593-0.84955 0.0326c-0.39586 0.0267-0.79172 0.0771-1.1861 0.14233l-0.29208 0.0519-0.58416 0.12899-0.29207 0.0771-0.27874 0.12306-0.2135 0.0978c-0.0148 6e-3 -0.0267 6e-3 -0.0326 0.0148l-0.18088 0.089c-0.0193 6e-3 -0.0326 0.0148-0.0445 0.0193l-0.20164 0.10378c-0.0445 0.0193-0.089 0.0445-0.12899 0.0652-0.0193 0.0148-0.0445 0.0252-0.0593 0.0326l-0.16901 0.0979a1.6309 1.6309 0 0 0-0.15568 0.0979l-0.12899 0.0889-0.14233 0.10379-0.10972 0.089c-0.0148 6e-3 -0.0267 0.0193-0.0386 0.0267l-0.0978 0.0845c-6e-3 0.0148-0.0193 0.0193-0.0267 0.0267l-0.11861 0.10971-0.12899 0.12306-0.10972 0.11861c-0.0148 0.0148-0.0326 0.0267-0.0445 0.0386a1.8236 1.8236 0 0 1-0.10972 0.11713c-6e-3 0.0148-0.0193 0.0193-0.0267 0.0326l-0.14827 0.15568-0.3499 0.33656c-0.11861 0.10378-0.24018 0.20164-0.36324 0.28466l-0.38845 0.24612c-0.12899 0.0712-0.26687 0.1364-0.40921 0.19274a4.6703 4.6703 0 0 1-0.42106 0.15567c-0.2728 0.0593-0.55154 0.16902-0.79172 0.1883-0.0519 0-0.10972 0.0148-0.16309 0.0193l-0.16309 0.0386-0.15568 0.0593a1.6605 1.6605 0 0 0-0.15567 0.0712c-0.0445 0.0326-0.0979 0.0593-0.14233 0.089-0.0445 0.0297-0.089 0.0712-0.12899 0.10971-0.04 0.0386-0.089 0.0771-0.12899 0.11861l-0.10972 0.12899c-0.0326 0.0519-0.0712 0.0979-0.0979 0.14826a1.1416 1.1416 0 0 0-0.0904 0.14975l-0.0712 0.16902-0.0593 0.16902-0.0326 0.15568c-0.0193 0.0771-0.0193 0.15567-0.0267 0.19274-7e-3 0.0371 0 0.086 0 0.13195a0.37066 0.37066 0 0 0 6e-3 0.0845c6e-3 0.0445 0.0148 0.0845 0.0267 0.12306l0.0445 0.11861c0.0193 0.0445 0.0445 0.0845 0.0712 0.12306l0.0845 0.11861 0.10971 0.10378a0.94888 0.94888 0 0 0 0.12306 0.10378c0.15568 0.13641 0.19274 0.18088 0.39586 0.28467 0.0326 0.0193 0.0652 0.0326 0.10379 0.0519 0.0193 0.0193 0.0193 0.0252 0.0267 0.0386 6e-3 0.0519 0.0193 0.10378 0.0326 0.15568a0.87475 0.87475 0 0 0 0.0519 0.15567l0.0519 0.11861c6e-3 0.0148 0.0148 0.0267 0.0193 0.0326l0.0771 0.14233 0.0979 0.1364 0.10972 0.12306c0.0386 0.0386 0.0771 0.0712 0.12305 0.10972l0.12899 0.0978c0.0445 0.0326 0.089 0.0593 0.14234 0.0845a1.0527 1.0527 0 0 0 0.14974 0.0712c0.0386 0.0193 0.0845 0.0326 0.12899 0.0445 0.0445 0.0119 0.0845 0.0267 0.10972 0.0326-0.0193 0.3499-0.0267 0.68201 0.0267 0.79765 0.0593 0.12899 0.34397-0.26687 0.62863-0.71907-0.0386 0.44776-0.0652 0.9726 0 1.1268 0.0652 0.15419 0.45962-0.34397 0.79766-0.90144 4.5961-1.063 8.792 2.1142 9.2323 6.6007-0.0845-0.6998-0.94592-1.0897-1.3418-0.99336-0.19274 0.48037-0.52485 1.0971-1.0571 1.4782 0.0445-0.42996 0.0252-0.86882-0.0652-1.2973a4.1958 4.1958 0 0 1-0.80358 1.6338c-0.61529 0.0445-1.2306-0.25204-1.5568-0.6998-0.0267-0.0193-0.0326-0.0593-0.0519-0.0845l-0.0519-0.1364c-0.0193-0.0445-0.0326-0.089-0.0386-0.1364s-6e-3 -0.089-6e-3 -0.14233v-0.0979c6e-3 -0.0445 0.0193-0.089 0.0326-0.1364l0.0445-0.1364c0.0267-0.0445 0.0445-0.089 0.0771-0.1364 0.10972-0.29653 0.10972-0.5634-0.089-0.71166-0.0386-0.0267-0.0771-0.0445-0.12306-0.0652-0.0267-6e-3 -0.0593-0.0193-0.0845-0.0267l-0.0519-0.0193-0.13641-0.0326a0.48927 0.48927 0 0 0-0.1364-0.0193 1.0527 1.0527 0 0 0-0.14233-0.0133c-0.0326 0-0.0652 6e-3 -0.0978 6e-3a0.50409 0.50409 0 0 0-0.14234 0.0193l-0.1364 0.0252-0.1364 0.0445-0.12899 0.0593-0.12306 0.0652c-1.5123 0.98595-0.60787 3.2914 0.42107 3.9616-0.38845 0.0712-0.78579 0.15568-0.89402 0.24019 0.26687 0.18088 0.55746 0.32618 0.86289 0.44775l1.0497 0.29653c0.53819 0.1186 1.0823 0.15567 1.6338 0.12305a6.1677 6.1677 0 0 0 5.6533-5.2648l0.0386 0.16902 0.0593 0.36325 0.0267 0.17495 0.0148 0.19274 0.0148 0.2135v0.10378c0 0.0326 6e-3 0.0712 6e-3 0.10378 0 0.0326-6e-3 0.0771-6e-3 0.11861v0.089c0 0.0445-6e-3 0.0845-6e-3 0.12899 0 0.0252 0 0.0519-6e-3 0.0845l-6e-3 0.14233c-6e-3 0.0193-6e-3 0.0386-6e-3 0.0593l-0.0193 0.14826c0 0.0193 0 0.0386-6e-3 0.0593l-0.0252 0.18829v0.0148l-0.0386 0.18088-0.0386 0.19274-0.0519 0.20164-0.0519 0.20163-0.0652 0.20757-0.14233 0.37659-0.0771 0.18829-0.089 0.18088c-6e-3 0.0193-0.0148 0.0326-0.0193 0.0445-0.43442 0.86882-1.0571 1.6161-1.8355 2.1973-0.0519 0.0326-0.10378 0.0712-0.15567 0.10971-0.0148 0.0148-0.0326 0.0193-0.0445 0.0326l-0.14234 0.0978 0.0193 0.0386h6e-3l0.2728-0.0386h6e-3l0.50409-0.089c0.0445-6e-3 0.0978-0.0193 0.14233-0.0326l0.089-0.0193 0.1364-0.0252 0.11861-0.0326c0.64791-0.15568 1.2751-0.37066 1.88-0.62271-1.0304 1.4085-2.4122 2.5412-4.0268 3.287 0.74576-0.0519 1.4915-0.17495 2.2091-0.38252 2.6124-0.77097 4.8111-2.5279 6.1277-4.8956a10.349 10.349 0 0 1-1.7436 4.1692c0.62864-0.41513 1.2054-0.89402 1.7317-1.4382a10.275 10.275 0 0 0 2.7295-5.5109c0.22239 1.023 0.28466 2.0816 0.18829 3.1254 4.6806-6.5295 0.38845-13.299-1.4085-15.081-6e-3 -0.0148-0.0148-0.0193-0.0148-0.0326-0.0148 0.0771-0.0193 0.15568-0.0252 0.23278-0.0193 0.14826-0.0386 0.29207-0.0652 0.4344-0.0267 0.14234-0.0712 0.28467-0.10972 0.42996-0.0386 0.1453-0.0979 0.27874-0.15567 0.41514-0.0578 0.13641-0.12306 0.26687-0.19274 0.39586a4.4182 4.4182 0 0 1-0.23278 0.36918c-0.0845 0.12305-0.17495 0.24018-0.26687 0.3499a4.8482 4.8482 0 0 1-0.30542 0.32469c-0.0652 0.0593-0.12306 0.10972-0.1883 0.16309l-0.14826 0.12899a3.6176 3.6176 0 0 1-0.36324 0.25353 4.4924 4.4924 0 0 1-0.38252 0.22091c-0.1364 0.0652-0.2728 0.12306-0.40921 0.18088a4.5665 4.5665 0 0 1-0.42106 0.1364c-0.14234 0.0386-0.29208 0.0712-0.43441 0.0979s-0.29653 0.0386-0.44034 0.0519c-0.10379 6e-3 -0.20757 0.0148-0.29653 0.0148-0.14826 0-0.29652-0.0148-0.44034-0.0267-0.14381-0.0119-0.29652-0.0326-0.44182-0.0652a3.2766 3.2766 0 0 1-0.43441-0.10972h-6e-3c0.14234-0.0148 0.28467-0.0267 0.42996-0.0519 0.1453-0.0252 0.29208-0.0593 0.43441-0.0978 0.14234-0.0386 0.28467-0.0845 0.42107-0.1364s0.27874-0.11861 0.40921-0.18088a4.5368 4.5368 0 0 0 0.38845-0.21351c0.12305-0.0845 0.24611-0.16901 0.36324-0.25945a3.5435 3.5435 0 0 0 0.33063-0.29209c0.10971-0.0979 0.20756-0.20757 0.30542-0.31728 0.0978-0.10972 0.18829-0.23278 0.2728-0.3499 0.0148-0.0193 0.0267-0.0445 0.0386-0.0652l0.1883-0.29653c0.0712-0.12898 0.1364-0.25946 0.19274-0.39586 0.0563-0.1364 0.10971-0.2728 0.15567-0.41513 0.046-0.14233 0.0771-0.27873 0.10972-0.42107 0.0326-0.14233 0.0519-0.29208 0.0652-0.43441s0.0252-0.29652 0.0252-0.44034c0-0.10378-6e-3 -0.20757-0.0148-0.29652-0.0148-0.14827-0.0326-0.29208-0.0519-0.43442a4.7444 4.7444 0 0 0-0.0978-0.4344c-0.0445-0.1364-0.089-0.27874-0.14233-0.41514-0.0534-0.1364-0.11861-0.2728-0.18088-0.40031-0.0623-0.12751-0.14233-0.25946-0.2224-0.38252-0.0801-0.12305-0.16901-0.24018-0.25946-0.35583l-0.29652-0.33062a4.0476 4.0476 0 0 0-0.16902-0.16161 11.935 11.935 0 0 0-0.90144-0.63605c-0.0445-0.0252-0.0845-0.0445-0.12898-0.0652-0.21351-0.1364-0.41514-0.20757-0.6153-0.27281z" fill="#ffffff" fill-rule="evenodd" stroke-width="1.4826"/>
    </g>
   </g>
  </g>
 </g>
</svg>
