<svg version="1.1" viewBox="0 0 795.08 135.22" xmlns="http://www.w3.org/2000/svg" xmlns:xlink="http://www.w3.org/1999/xlink">
 <defs>
  <path id="SVGID_1_" d="m173.12 70.717c-1.574-0.909-3.514-0.909-5.087 0l-42.134 24.314c-1.576 0.909-2.546 2.588-2.546 4.408v48.666c0 1.818 0.97 3.497 2.544 4.408l42.134 24.334c1.575 0.909 3.515 0.909 5.091 0l42.124-24.334c1.574-0.91 2.543-2.59 2.543-4.408v-48.668c0-1.818-0.97-3.497-2.545-4.406z"/>
  <path id="SVGID_4_" d="m173.12 70.717c-1.574-0.909-3.514-0.909-5.087 0l-42.134 24.314c-1.576 0.909-2.546 2.588-2.546 4.408v48.666c0 1.818 0.97 3.497 2.544 4.408l42.134 24.334c1.575 0.909 3.515 0.909 5.091 0l42.124-24.334c1.574-0.91 2.543-2.59 2.543-4.408v-48.668c0-1.818-0.97-3.497-2.545-4.406z"/>
 </defs>
 <g transform="translate(297.88 -107.51)">
  <g transform="translate(-297.19 -291.95)">
   <rect x=".067882" y="400.22" width="793.57" height="133.71" fill="#141321" stroke="#fe428e" stroke-linecap="round" stroke-width="1.5138"/>
   <g transform="translate(-.39726 -17.296)">
    <g transform="translate(-103.09 122.49)">
     <rect x="120.42" y="354.65" width="120.07" height="52.968" ry="0" fill="#f0652a"/>
     <g transform="translate(-.35587 -.62749)">
      <text x="160.81471" y="391.0058" fill="#ffffff" font-family="Ubuntu" font-size="26.667px" font-weight="bold" stroke-linecap="round" stroke-width="6.2435" xml:space="preserve"><tspan x="160.81471" y="391.0058" font-size="26.667px" stroke-width="6.2435">HTML</tspan></text>
      <path d="m126.73 366.77 2.4003 26.963 10.762 3.0372 10.837-3.0372 2.4003-26.963zm21.187 8.7936h-12.637l0.28064 3.3942h12.076l-0.93836 10.199-6.7311 1.8564v0.0191h-0.0746l-6.7878-1.8756-0.4125-5.2125h3.2814l0.24358 2.6253 3.6754 0.99386 3.6934-0.99386 0.413-4.2747h-11.475l-0.88107-10.013h16.575z" fill="#141321" stroke-width=".071428"/>
     </g>
    </g>
    <g transform="translate(-371.28 127.4)">
     <rect x="535.99" y="349.75" width="91.18" height="52.968" ry="0" fill="#48a0dc"/>
     <g transform="translate(5.6601 -.05556)">
      <text x="568.40857" y="385.55255" fill="#ffffff" font-family="Ubuntu" font-size="26.667px" font-weight="bold" stroke-linecap="round" stroke-width="6.2435" xml:space="preserve"><tspan x="568.40857" y="385.55255" fill="#ffffff" font-size="26.667px" stroke-width="6.2435">CSS</tspan></text>
      <path d="m562.17 361.29-2.4 27-10.821 3-10.821-3-2.4-27zm-20.486 17.143 0.46072 5.2071 6.8036 1.9179 6.7821-1.875 1.5-16.875h-16.586l0.3 3.3107h12.654l-0.3 3.3964h-12.054l0.28928 3.3107h11.486l-0.38572 4.2857-3.6857 1.0071-3.6964-0.99643-0.24643-2.6893z" stroke-width="1.0714"/>
     </g>
    </g>
    <g transform="translate(-109.26 154.89)">
     <rect x="630.73" y="322.26" width="131.93" height="52.968" ry="0" fill="#6cc24a"/>
     <g transform="translate(.1985 2.0651)">
      <text x="683.44379" y="355.94528" fill="#141321" font-family="Ubuntu" font-size="26.667px" font-weight="bold" stroke-linecap="round" stroke-width="6.2435" xml:space="preserve"><tspan x="683.44379" y="355.94528" fill="#141321" font-size="26.667px" stroke-width="6.2435">NODE</tspan></text>
      <g transform="matrix(.11073 0 0 .11073 632.64 330.78)">
       <g fill="#699f63">
        <path d="m225.95 279.05c-1.46 0-2.912-0.381-4.19-1.121l-13.339-7.892c-1.991-1.115-1.018-1.509-0.362-1.738 2.657-0.922 3.195-1.135 6.031-2.743 0.295-0.166 0.687-0.103 0.992 0.076l10.247 6.084c0.372 0.206 0.896 0.206 1.237 0l39.95-23.058c0.372-0.212 0.61-0.64 0.61-1.081v-46.103c0-0.451-0.239-0.872-0.62-1.101l-39.933-23.038c-0.368-0.216-0.859-0.216-1.231 0l-39.923 23.045c-0.388 0.222-0.634 0.657-0.634 1.094v46.103c0 0.441 0.245 0.859 0.63 1.068l10.944 6.323c5.938 2.969 9.573-0.528 9.573-4.041v-45.52c0-0.643 0.518-1.151 1.161-1.151h5.066c0.634 0 1.158 0.508 1.158 1.151v45.52c0 7.925-4.316 12.47-11.829 12.47-2.309 0-4.127 0-9.202-2.501l-10.476-6.031c-2.587-1.496-4.19-4.293-4.19-7.288v-46.103c0-2.995 1.602-5.792 4.19-7.281l39.95-23.085c2.528-1.43 5.888-1.43 8.396 0l39.947 23.085c2.587 1.496 4.196 4.286 4.196 7.281v46.103c0 2.995-1.609 5.782-4.196 7.288l-39.947 23.065c-1.277 0.739-2.726 1.12-4.206 1.12z"/>
        <path d="m238.29 247.29c-17.482 0-21.144-8.024-21.144-14.755 0-0.64 0.514-1.151 1.155-1.151h5.165c0.577 0 1.058 0.415 1.148 0.979 0.78 5.258 3.105 7.912 13.677 7.912 8.416 0 11.999-1.904 11.999-6.369 0-2.574-1.015-4.485-14.095-5.766-10.93-1.081-17.691-3.496-17.691-12.241 0-8.061 6.794-12.868 18.186-12.868 12.798 0 19.131 4.442 19.933 13.972 0.03 0.328-0.086 0.644-0.305 0.889-0.219 0.229-0.524 0.368-0.846 0.368h-5.185c-0.537 0-1.012-0.381-1.121-0.902-1.244-5.533-4.269-7.301-12.476-7.301-9.189 0-10.257 3.201-10.257 5.599 0 2.906 1.261 3.752 13.667 5.394 12.277 1.622 18.109 3.921 18.109 12.549-2e-3 8.705-7.26 13.691-19.919 13.691z"/>
       </g>
       <g>
        <path d="m295.9 198.94c0 4.236-3.463 7.699-7.699 7.699-4.197 0-7.699-3.422-7.699-7.699 0-4.359 3.586-7.701 7.699-7.701 4.156 0 7.699 3.342 7.699 7.701zm-14.155-0.022c0 3.586 2.892 6.479 6.435 6.479 3.586 0 6.479-2.954 6.479-6.479 0-3.584-2.932-6.436-6.479-6.436-3.503 1e-3 -6.435 2.81-6.435 6.436zm3.563-4.297h2.976c1.018 0 3.015 0 3.015 2.282 0 1.589-1.018 1.914-1.632 2.118 1.184 0.082 1.264 0.856 1.426 1.956 0.083 0.692 0.206 1.874 0.448 2.281h-1.831c-0.043-0.406-0.328-2.607-0.328-2.728-0.119-0.49-0.285-0.733-0.895-0.733h-1.506v3.461h-1.672v-8.637zm1.632 3.788h1.343c1.098 0 1.304-0.773 1.304-1.221 0-1.183-0.816-1.183-1.264-1.183h-1.383z" fill="#699f63"/>
       </g>
       <path d="m102.24 98.677c0-1.841-0.969-3.533-2.558-4.445l-42.355-24.375c-0.716-0.421-1.519-0.64-2.332-0.674h-0.438c-0.809 0.033-1.612 0.252-2.339 0.674l-42.355 24.375c-1.579 0.912-2.561 2.604-2.561 4.445l0.093 65.635c0 0.912 0.474 1.762 1.277 2.209 0.786 0.471 1.758 0.471 2.541 0l25.172-14.414c1.592-0.945 2.561-2.614 2.561-4.438v-30.665c0-1.828 0.968-3.52 2.554-4.428l10.718-6.173c0.799-0.461 1.672-0.687 2.564-0.687 0.872 0 1.768 0.226 2.544 0.687l10.715 6.173c1.586 0.909 2.558 2.601 2.558 4.428v30.665c0 1.824 0.982 3.503 2.564 4.438l25.165 14.414c0.789 0.471 1.775 0.471 2.558 0 0.78-0.448 1.271-1.297 1.271-2.209z" fill="#333333"/>
       <path d="m306.04 8.451c-0.793-0.441-1.76-0.431-2.543 0.028-0.781 0.46-1.262 1.299-1.262 2.206v65c0 0.639-0.342 1.231-0.894 1.551-0.554 0.32-1.237 0.32-1.792 0l-10.608-6.112c-1.583-0.912-3.53-0.91-5.112 2e-3l-42.372 24.453c-1.584 0.914-2.559 2.603-2.559 4.43v48.916c0 1.828 0.975 3.516 2.558 4.432l42.37 24.471c1.584 0.914 3.534 0.914 5.118 0l42.376-24.471c1.583-0.915 2.558-2.604 2.558-4.432v-121.94c0-1.854-1.003-3.565-2.624-4.469zm-3.931 124.4c0 0.456-0.244 0.879-0.64 1.106l-14.548 8.386c-0.395 0.227-0.882 0.227-1.277 0l-14.548-8.386c-0.396-0.227-0.64-0.65-0.64-1.106v-16.799c0-0.456 0.244-0.879 0.639-1.108l14.548-8.403c0.396-0.229 0.884-0.229 1.28 0l14.548 8.403c0.395 0.229 0.639 0.652 0.639 1.108z" fill="#333333"/>
       <g>
        <path d="m447.13 115.62c1.576-0.915 2.546-2.601 2.546-4.424v-11.854c0-1.823-0.97-3.51-2.548-4.425l-42.099-24.443c-1.584-0.921-3.54-0.922-5.127-7e-3l-42.356 24.453c-1.583 0.914-2.558 2.602-2.558 4.43v48.903c0 1.839 0.987 3.536 2.584 4.445l42.093 23.985c1.552 0.886 3.455 0.896 5.017 0.028l25.46-14.151c0.808-0.449 1.311-1.297 1.315-2.219 7e-3 -0.922-0.484-1.776-1.284-2.236l-42.625-24.465c-0.796-0.456-1.285-1.304-1.285-2.22v-15.326c0-0.914 0.487-1.76 1.28-2.216l13.266-7.648c0.789-0.456 1.765-0.456 2.554 0l13.273 7.648c0.793 0.456 1.28 1.302 1.28 2.216v12.058c0 0.916 0.49 1.762 1.282 2.218 0.793 0.458 1.77 0.454 2.561-5e-3z" fill="#333333"/>
        <path d="m401.84 113.32c0.304-0.176 0.678-0.176 0.982 0l8.13 4.69c0.304 0.176 0.491 0.499 0.491 0.851v9.388c0 0.352-0.187 0.675-0.491 0.851l-8.13 4.69c-0.304 0.176-0.678 0.176-0.982 0l-8.124-4.69c-0.304-0.176-0.491-0.499-0.491-0.851v-9.388c0-0.352 0.187-0.675 0.491-0.851z" fill="#699f63"/>
       </g>
       <g>
        <g>
         <linearGradient id="XMLID_2_" x1="187.7" x2="149.64" y1="199.29" y2="121.63" gradientTransform="matrix(1,0,0,-1,0,288.11)" gradientUnits="userSpaceOnUse">
          <stop stop-color="#41873F" offset="0"/>
          <stop stop-color="#418B3D" offset=".3288"/>
          <stop stop-color="#419637" offset=".6352"/>
          <stop stop-color="#3FA92D" offset=".9319"/>
          <stop stop-color="#3FAE2A" offset="1"/>
         </linearGradient>
         <path id="XMLID_143_" d="m173.12 70.717c-1.574-0.909-3.514-0.909-5.087 0l-42.134 24.314c-1.576 0.909-2.546 2.588-2.546 4.408v48.666c0 1.818 0.97 3.497 2.544 4.408l42.134 24.334c1.575 0.909 3.515 0.909 5.091 0l42.124-24.334c1.574-0.91 2.543-2.59 2.543-4.408v-48.668c0-1.818-0.97-3.497-2.545-4.406z" fill="url(#XMLID_2_)"/>
        </g>
        <g>
         <clipPath id="SVGID_2_">
          <use overflow="visible" xlink:href="#SVGID_1_"/>
         </clipPath>
         <g clip-path="url(#SVGID_2_)">
          <path d="m167.94 70.717-42.222 24.314c-1.576 0.909-2.722 2.588-2.722 4.408v48.666c0 1.203 0.514 2.339 1.313 3.238l47.44-81.152c-1.274-0.314-2.652-0.142-3.809 0.526z" fill="none"/>
          <path d="m171.99 177.34c0.41-0.113 0.81-0.275 1.186-0.492l42.177-24.334c1.574-0.91 2.649-2.59 2.649-4.408v-48.668c0-1.338-0.598-2.598-1.54-3.534z" fill="none"/>
          <linearGradient id="SVGID_3_" x1="164.16" x2="270.96" y1="158.65" y2="237.56" gradientTransform="matrix(1,0,0,-1,0,288.11)" gradientUnits="userSpaceOnUse">
           <stop stop-color="#41873F" offset=".1376"/>
           <stop stop-color="#54A044" offset=".4032"/>
           <stop stop-color="#66B848" offset=".7136"/>
           <stop stop-color="#6CC04A" offset=".9081"/>
          </linearGradient>
          <path d="m215.33 95.031-42.252-24.314c-0.417-0.241-0.863-0.413-1.322-0.526l-47.44 81.152c0.409 0.46 0.888 0.861 1.42 1.169l42.323 24.334c1.199 0.692 2.624 0.854 3.931 0.492l44.473-81.436c-0.338-0.334-0.717-0.631-1.133-0.871z" fill="url(#SVGID_3_)"/>
         </g>
        </g>
        <g>
         <clipPath id="SVGID_5_">
          <use overflow="visible" xlink:href="#SVGID_4_"/>
         </clipPath>
         <g clip-path="url(#SVGID_5_)">
          <path d="m218 148.1v-48.668c0-1.818-1.098-3.497-2.673-4.406l-42.252-24.314c-0.485-0.28-1.011-0.463-1.551-0.571l46.317 79.128c0.099-0.379 0.159-0.769 0.159-1.169z" fill="none"/>
          <path d="m125.72 95.031c-1.576 0.909-2.722 2.588-2.722 4.408v48.666c0 1.818 1.16 3.497 2.733 4.408l42.323 24.334c0.995 0.574 2.146 0.784 3.256 0.632l-45.337-82.594z" fill="none"/>
          <linearGradient id="SVGID_6_" x1="121.86" x2="219.28" y1="226.17" y2="226.17" gradientTransform="matrix(1,0,0,-1,0,288.11)" gradientUnits="userSpaceOnUse">
           <stop stop-color="#6CC04A" offset=".0919"/>
           <stop stop-color="#66B848" offset=".2864"/>
           <stop stop-color="#54A044" offset=".5968"/>
           <stop stop-color="#41873F" offset=".8624"/>
          </linearGradient>
          <polygon points="166.82 62.11 166.63 61.779 166.05 62.11" fill="url(#SVGID_6_)"/>
          <linearGradient id="SVGID_7_" x1="121.86" x2="219.28" y1="164.35" y2="164.35" gradientTransform="matrix(1,0,0,-1,0,288.11)" gradientUnits="userSpaceOnUse">
           <stop stop-color="#6CC04A" offset=".0919"/>
           <stop stop-color="#66B848" offset=".2864"/>
           <stop stop-color="#54A044" offset=".5968"/>
           <stop stop-color="#41873F" offset=".8624"/>
          </linearGradient>
          <path d="m215.35 152.51c1.228-0.71 2.144-1.891 2.491-3.238l-46.317-79.128c-1.209-0.241-2.492-0.058-3.581 0.571l-41.968 24.168 45.337 82.594c0.647-0.088 1.281-0.298 1.861-0.632z" fill="url(#SVGID_7_)"/>
          <linearGradient id="SVGID_8_" x1="121.86" x2="219.28" y1="136.54" y2="136.54" gradientTransform="matrix(1,0,0,-1,0,288.11)" gradientUnits="userSpaceOnUse">
           <stop stop-color="#6CC04A" offset=".0919"/>
           <stop stop-color="#66B848" offset=".2864"/>
           <stop stop-color="#54A044" offset=".5968"/>
           <stop stop-color="#41873F" offset=".8624"/>
          </linearGradient>
          <polygon points="219 151.89 219.28 151.73 219 151.25" fill="url(#SVGID_8_)"/>
          <linearGradient id="SVGID_9_" x1="121.86" x2="219.28" y1="123.97" y2="123.97" gradientTransform="matrix(1,0,0,-1,0,288.11)" gradientUnits="userSpaceOnUse">
           <stop stop-color="#6CC04A" offset=".0919"/>
           <stop stop-color="#66B848" offset=".2864"/>
           <stop stop-color="#54A044" offset=".5968"/>
           <stop stop-color="#41873F" offset=".8624"/>
          </linearGradient>
          <path d="m215.35 152.51-42.177 24.334c-0.58 0.335-1.214 0.544-1.861 0.632l0.84 1.53 46.847-27.117v-0.639l-1.158-1.978c-0.347 1.347-1.263 2.527-2.491 3.238z" fill="url(#SVGID_9_)"/>
          <linearGradient id="SVGID_10_" x1="233.47" x2="173.39" y1="201.59" y2="79.023" gradientTransform="matrix(1,0,0,-1,0,288.11)" gradientUnits="userSpaceOnUse">
           <stop stop-color="#41873F" offset="0"/>
           <stop stop-color="#418B3D" offset=".3288"/>
           <stop stop-color="#419637" offset=".6352"/>
           <stop stop-color="#3FA92D" offset=".9319"/>
           <stop stop-color="#3FAE2A" offset="1"/>
          </linearGradient>
          <path d="m215.35 152.51-42.177 24.334c-0.58 0.335-1.214 0.544-1.861 0.632l0.84 1.53 46.847-27.117v-0.639l-1.158-1.978c-0.347 1.347-1.263 2.527-2.491 3.238z" fill="url(#SVGID_10_)"/>
         </g>
        </g>
       </g>
      </g>
     </g>
    </g>
    <g transform="translate(-9.8334 124.75)">
     <rect x="293.04" y="352.39" width="210.94" height="52.968" ry="0" fill="#f7df1e"/>
     <g transform="translate(-2.7613 -2.4278)">
      <text x="338.98099" y="390.57028" fill="#ffffff" font-family="Ubuntu" font-size="26.667px" font-weight="bold" stroke-linecap="round" stroke-width="6.2435" xml:space="preserve"><tspan x="338.98099" y="390.57028" fill="#ffffff" font-size="26.667px" stroke-width="6.2435">JAVASCRIPT</tspan></text>
      <path d="m302.85 366.3v30h30v-30zm16.071 23.304c0 2.9203-1.725 4.344-4.2221 4.344-2.2554 0-3.5645-1.1678-4.2288-2.5774l2.2955-1.3895c0.44264 0.78549 0.7788 1.4498 1.7451 1.4498 0.80357 0 1.4638-0.36228 1.4638-1.7719v-9.4299h2.9464zm6.6529 4.277c-2.6176 0-4.3092-1.1812-5.1348-2.8125l2.2989-1.3306c0.60268 0.98705 1.3895 1.6446 2.779 1.6446 1.1679 0 1.8462-0.51696 1.8462-1.3225 0-0.9663-0.69844-1.3085-1.9875-1.875l-0.70447-0.30268c-2.0344-0.86518-3.383-1.9527-3.383-4.2489 0-2.1141 1.6105-3.6583 4.1277-3.6583 1.7926 0 3.0804 0.55714 4.0078 2.1884l-2.1991 1.4136c-0.48348-0.86585-1.0045-1.2054-1.812-1.2054-0.82567 0-1.3493 0.52366-1.3493 1.2054 0 0.84575 0.52366 1.1879 1.7317 1.7116l0.70447 0.30201c2.3966 1.0272 3.746 2.0759 3.746 4.4304 6.7e-4 2.538-1.9929 3.8598-4.6714 3.8598z" fill="#141321" stroke-width=".066964"/>
     </g>
    </g>
    <g transform="translate(5.6657 100.68)">
     <rect x="675.05" y="376.46" width="96.448" height="52.968" ry="0" fill="#19fef4"/>
     <path d="m733.31 396.36c-1.3654 0.35075-2.4928 0.53865-3.6453 0.95204-0.91446 0.23801-1.8414 0.48854-2.9062 0.76413l-0.0752 0.0125c-0.52612 0.15032-0.57623 0.16285-1.0648-0.40086-0.58876-0.66392-1.0147-1.0898-1.8289-1.4907-2.4678-1.2026-4.8479-0.85182-7.0651 0.58876-2.6557 1.7162-4.0211 4.2591-3.9835 7.4159 0.0376 3.1317 2.1797 5.6997 5.161 6.1256 2.7559 0.35075 4.9857-0.57623 6.7394-2.568 0.26306-0.32569 0.50107-0.66391 0.76413-1.0397 0.10022-0.12527 0.1879-0.26306 0.28812-0.41338h-7.5286c-0.81424 0-1.0147-0.50107-0.73908-1.165 0.50107-1.2151 1.4406-3.2444 1.9918-4.2591 0.11274-0.22548 0.38833-0.72655 0.86435-0.72655h12.665c0.56371-1.6786 1.4782-3.3697 2.7058-4.9731 2.8436-3.7455 6.1757-5.6997 10.923-6.5139 3.9835-0.7015 7.729-0.31317 11.136 1.9918 3.0816 2.1045 4.9857 4.9606 5.4993 8.7061 0.66392 5.2738-0.86435 9.5579-4.5973 13.228-2.4678 2.6181-5.6245 4.2591-9.2573 4.9982-0.7015 0.12527-1.3905 0.1879-2.0669 0.25053-0.36328 0.0251-0.71403 0.0626-1.0648 0.10022-3.5451-0.0752-6.7895-1.0898-9.5204-3.4323-1.9166-1.6661-3.2444-3.7079-3.8958-6.0755-0.46349 0.91446-1.0021 1.8039-1.7538 2.6432-2.7058 3.7079-6.3761 6.0129-11.011 6.6267-3.8332 0.5136-7.3783-0.22548-10.51-2.568-2.8812-2.1922-4.5222-5.0734-4.9481-8.6685-0.5136-4.2591 0.73908-8.1925 3.3071-11.437 2.781-3.6328 6.4513-5.9377 10.936-6.7519 3.6704-0.77666 7.1778-0.23801 10.347 1.9166 2.0669 1.3654 3.5451 3.2319 4.5222 5.4992 0.23801 0.35075 0.0752 0.55118-0.38833 0.66392zm-44.069 0.7015c-0.15658 0-0.19542-0.0752-0.11775-0.20043l0.8205-1.0522c0.0777-0.11274 0.27309-0.1879 0.42967-0.1879h13.937c0.15032 0 0.1879 0.11274 0.11274 0.22548l-0.66392 1.0147c-0.0752 0.12527-0.27559 0.23801-0.38833 0.23801zm-5.8944 3.5952c-0.15608 0-0.19512-0.0877-0.11705-0.20043l0.81968-1.0522c0.0782-0.11274 0.27333-0.20043 0.42904-0.20043h17.803c0.15032 0 0.22548 0.12527 0.1879 0.23801l-0.31317 0.93951c-0.0376 0.15032-0.1879 0.23801-0.35075 0.23801zm9.3292 3.3572c-0.0777 0.11274-0.0388 0.22548 0.11649 0.22548l8.512 0.0376c0.11274 0 0.27559-0.11274 0.27559-0.26306l0.0752-0.93951c0-0.16285-0.0752-0.27559-0.23801-0.27559h-7.8042c-0.15659 0-0.31192 0.11274-0.39084 0.23801zm62.819-2.2548c-0.025-0.3257-0.0376-0.60129-0.0877-0.87688-0.7015-3.8582-4.2591-6.0504-7.967-5.1861-3.6328 0.81424-5.9753 3.1192-6.8271 6.7895-0.7015 3.044 0.77666 6.1256 3.5827 7.3783 2.1546 0.93951 4.2967 0.82677 6.3636-0.238 3.0816-1.7036 4.7602-4.0963 4.9606-7.4534-0.0125-0.15032-0.0125-0.28812-0.0251-0.41338z" fill="#141321" stroke-width=".12527"/>
    </g>
   </g>
   <text x="196.2843" y="442.20917" fill="#ffffff" font-family="Ubuntu" font-size="29.333px" font-weight="500" stroke-linecap="round" stroke-width="5" xml:space="preserve"><tspan x="196.2843" y="442.20917">PROGRAMMING LANGUAGES</tspan></text>
  </g>
 </g>
</svg>
