<svg version="1.1" viewBox="0 0 795.08 135.22" xmlns="http://www.w3.org/2000/svg" xmlns:xlink="http://www.w3.org/1999/xlink">
 <defs>
  <path id="SVGID_1_" d="m173.12 70.717c-1.574-0.909-3.514-0.909-5.087 0l-42.134 24.314c-1.576 0.909-2.546 2.588-2.546 4.408v48.666c0 1.818 0.97 3.497 2.544 4.408l42.134 24.334c1.575 0.909 3.515 0.909 5.091 0l42.124-24.334c1.574-0.91 2.543-2.59 2.543-4.408v-48.668c0-1.818-0.97-3.497-2.545-4.406z"/>
  <path id="SVGID_4_" d="m173.12 70.717c-1.574-0.909-3.514-0.909-5.087 0l-42.134 24.314c-1.576 0.909-2.546 2.588-2.546 4.408v48.666c0 1.818 0.97 3.497 2.544 4.408l42.134 24.334c1.575 0.909 3.515 0.909 5.091 0l42.124-24.334c1.574-0.91 2.543-2.59 2.543-4.408v-48.668c0-1.818-0.97-3.497-2.545-4.406z"/>
 </defs>
 <g transform="translate(297.88 -107.51)">
  <g transform="translate(-297.19,-291.95)">
   <rect x=".067882" y="400.22" width="793.57" height="133.71" fill="#141321" stroke="#fe428e" stroke-linecap="round" stroke-width="1.5138"/>
   <text x="196.2843" y="442.20917" fill="#ffffff" font-family="Ubuntu" font-size="29.333px" font-weight="500" stroke-linecap="round" stroke-width="5" xml:space="preserve"><tspan x="196.2843" y="442.20917">PROGRAMMING LANGUAGES</tspan></text>
   <g transform="translate(1.0344 6.4968)">
    <g transform="matrix(.75517 0 0 .75517 4.1456 112.76)">
     <rect x="16.933" y="459.84" width="120.07" height="52.968" ry="0" fill="#f0652a"/>
     <text x="56.971584" y="495.5723" fill="#ffffff" font-family="Ubuntu" font-size="26.667px" font-weight="bold" stroke-linecap="round" stroke-width="6.2435" xml:space="preserve"><tspan x="56.971584" y="495.5723" font-size="26.667px" stroke-width="6.2435">HTML</tspan></text>
     <path d="m22.887 471.34 2.4003 26.963 10.762 3.0372 10.837-3.0372 2.4003-26.963zm21.187 8.7936h-12.637l0.28064 3.3942h12.076l-0.93836 10.199-6.7311 1.8564v0.0191h-0.0746l-6.7878-1.8756-0.4125-5.2125h3.2814l0.24358 2.6253 3.6754 0.99386 3.6934-0.99386 0.413-4.2747h-11.475l-0.88107-10.013h16.575z" fill="#141321" stroke-width=".071428"/>
    </g>
    <g transform="matrix(.75517 0 0 .75517 4.9586 112.75)">
     <rect x="164.31" y="459.85" width="91.18" height="52.968" ry="0" fill="#48a0dc"/>
     <text x="202.3914" y="495.60098" fill="#ffffff" font-family="Ubuntu" font-size="26.667px" font-weight="bold" stroke-linecap="round" stroke-width="6.2435" xml:space="preserve"><tspan x="202.3914" y="495.60098" fill="#ffffff" font-size="26.667px" stroke-width="6.2435">CSS</tspan></text>
     <path d="m196.15 471.34-2.4 27-10.821 3-10.821-3-2.4-27zm-20.486 17.143 0.46072 5.2071 6.8036 1.9179 6.7821-1.875 1.5-16.875h-16.586l0.3 3.3107h12.654l-0.3 3.3964h-12.054l0.28928 3.3107h11.486l-0.38572 4.2857-3.6857 1.0071-3.6964-0.99643-0.24643-2.6893z" stroke-width="1.0714"/>
    </g>
    <g transform="matrix(.75517 0 0 .75517 187.3 112.75)">
     <rect x="521.07" y="459.85" width="131.93" height="52.968" ry="0" fill="#6cc24a"/>
     <text x="573.98505" y="495.60437" fill="#141321" font-family="Ubuntu" font-size="26.667px" font-weight="bold" stroke-linecap="round" stroke-width="6.2435" xml:space="preserve"><tspan x="573.98505" y="495.60437" fill="#141321" font-size="26.667px" stroke-width="6.2435">NODE</tspan></text>
     <g transform="matrix(.11073 0 0 .11073 523.18 470.44)" fill="#699f63">
      <path d="m225.95 279.05c-1.46 0-2.912-0.381-4.19-1.121l-13.339-7.892c-1.991-1.115-1.018-1.509-0.362-1.738 2.657-0.922 3.195-1.135 6.031-2.743 0.295-0.166 0.687-0.103 0.992 0.076l10.247 6.084c0.372 0.206 0.896 0.206 1.237 0l39.95-23.058c0.372-0.212 0.61-0.64 0.61-1.081v-46.103c0-0.451-0.239-0.872-0.62-1.101l-39.933-23.038c-0.368-0.216-0.859-0.216-1.231 0l-39.923 23.045c-0.388 0.222-0.634 0.657-0.634 1.094v46.103c0 0.441 0.245 0.859 0.63 1.068l10.944 6.323c5.938 2.969 9.573-0.528 9.573-4.041v-45.52c0-0.643 0.518-1.151 1.161-1.151h5.066c0.634 0 1.158 0.508 1.158 1.151v45.52c0 7.925-4.316 12.47-11.829 12.47-2.309 0-4.127 0-9.202-2.501l-10.476-6.031c-2.587-1.496-4.19-4.293-4.19-7.288v-46.103c0-2.995 1.602-5.792 4.19-7.281l39.95-23.085c2.528-1.43 5.888-1.43 8.396 0l39.947 23.085c2.587 1.496 4.196 4.286 4.196 7.281v46.103c0 2.995-1.609 5.782-4.196 7.288l-39.947 23.065c-1.277 0.739-2.726 1.12-4.206 1.12z"/>
      <path d="m238.29 247.29c-17.482 0-21.144-8.024-21.144-14.755 0-0.64 0.514-1.151 1.155-1.151h5.165c0.577 0 1.058 0.415 1.148 0.979 0.78 5.258 3.105 7.912 13.677 7.912 8.416 0 11.999-1.904 11.999-6.369 0-2.574-1.015-4.485-14.095-5.766-10.93-1.081-17.691-3.496-17.691-12.241 0-8.061 6.794-12.868 18.186-12.868 12.798 0 19.131 4.442 19.933 13.972 0.03 0.328-0.086 0.644-0.305 0.889-0.219 0.229-0.524 0.368-0.846 0.368h-5.185c-0.537 0-1.012-0.381-1.121-0.902-1.244-5.533-4.269-7.301-12.476-7.301-9.189 0-10.257 3.201-10.257 5.599 0 2.906 1.261 3.752 13.667 5.394 12.277 1.622 18.109 3.921 18.109 12.549-2e-3 8.705-7.26 13.691-19.919 13.691z"/>
     </g>
     <g transform="matrix(.11073 0 0 .11073 523.18 470.44)">
      <path d="m295.9 198.94c0 4.236-3.463 7.699-7.699 7.699-4.197 0-7.699-3.422-7.699-7.699 0-4.359 3.586-7.701 7.699-7.701 4.156 0 7.699 3.342 7.699 7.701zm-14.155-0.022c0 3.586 2.892 6.479 6.435 6.479 3.586 0 6.479-2.954 6.479-6.479 0-3.584-2.932-6.436-6.479-6.436-3.503 1e-3 -6.435 2.81-6.435 6.436zm3.563-4.297h2.976c1.018 0 3.015 0 3.015 2.282 0 1.589-1.018 1.914-1.632 2.118 1.184 0.082 1.264 0.856 1.426 1.956 0.083 0.692 0.206 1.874 0.448 2.281h-1.831c-0.043-0.406-0.328-2.607-0.328-2.728-0.119-0.49-0.285-0.733-0.895-0.733h-1.506v3.461h-1.672v-8.637zm1.632 3.788h1.343c1.098 0 1.304-0.773 1.304-1.221 0-1.183-0.816-1.183-1.264-1.183h-1.383z" fill="#699f63"/>
     </g>
     <path d="m534.5 481.37c0-0.20385-0.1073-0.3912-0.28325-0.49219l-4.69-2.699c-0.0793-0.0466-0.1682-0.0709-0.25822-0.0746h-0.0485c-0.0896 4e-3 -0.1785 0.0279-0.259 0.0746l-4.69 2.699c-0.17484 0.10099-0.28358 0.28834-0.28358 0.49219l0.0103 7.2678c0 0.10098 0.0525 0.1951 0.1414 0.2446 0.087 0.0521 0.19466 0.0521 0.28137 0l2.7873-1.5961c0.17628-0.10464 0.28358-0.28945 0.28358-0.49142v-3.3955c0-0.20241 0.10719-0.38977 0.2828-0.49031l1.1868-0.68354c0.0885-0.051 0.18514-0.0761 0.28391-0.0761 0.0966 0 0.19577 0.025 0.2817 0.0761l1.1865 0.68354c0.17562 0.10065 0.28325 0.28801 0.28325 0.49031v3.3955c0 0.20197 0.10873 0.38789 0.28391 0.49142l2.7865 1.5961c0.0874 0.0521 0.19655 0.0521 0.28325 0 0.0864-0.0496 0.14073-0.14362 0.14073-0.2446z" fill="#333333" stroke-width=".11073"/>
     <path d="m557.07 471.37c-0.0878-0.0488-0.19489-0.0477-0.28159 3e-3 -0.0865 0.0509-0.13974 0.14384-0.13974 0.24427v7.1974c0 0.0708-0.0379 0.13631-0.099 0.17174-0.0613 0.0354-0.13697 0.0354-0.19843 0l-1.1746-0.67678c-0.17529-0.10099-0.39088-0.10076-0.56605 2.2e-4l-4.6919 2.7077c-0.17539 0.10121-0.28335 0.28823-0.28335 0.49054v5.4165c0 0.20241 0.10796 0.38932 0.28324 0.49075l4.6916 2.7097c0.1754 0.10121 0.39132 0.10121 0.56672 0l4.6923-2.7097c0.17529-0.10132 0.28325-0.28834 0.28325-0.49075v-13.502c0-0.20529-0.11106-0.39475-0.29055-0.49485zm-0.43528 13.775c0 0.0505-0.027 0.0973-0.0709 0.12247l-1.6109 0.92858c-0.0437 0.0251-0.0977 0.0251-0.1414 0l-1.6109-0.92858c-0.0439-0.0251-0.0709-0.072-0.0709-0.12247v-1.8602c0-0.0505 0.027-0.0973 0.0708-0.12269l1.6109-0.93047c0.0439-0.0254 0.0979-0.0254 0.14173 0l1.6109 0.93047c0.0437 0.0254 0.0708 0.0722 0.0708 0.12269z" fill="#333333" stroke-width=".11073"/>
     <g transform="matrix(.11073 0 0 .11073 523.18 470.44)">
      <path d="m447.13 115.62c1.576-0.915 2.546-2.601 2.546-4.424v-11.854c0-1.823-0.97-3.51-2.548-4.425l-42.099-24.443c-1.584-0.921-3.54-0.922-5.127-7e-3l-42.356 24.453c-1.583 0.914-2.558 2.602-2.558 4.43v48.903c0 1.839 0.987 3.536 2.584 4.445l42.093 23.985c1.552 0.886 3.455 0.896 5.017 0.028l25.46-14.151c0.808-0.449 1.311-1.297 1.315-2.219 7e-3 -0.922-0.484-1.776-1.284-2.236l-42.625-24.465c-0.796-0.456-1.285-1.304-1.285-2.22v-15.326c0-0.914 0.487-1.76 1.28-2.216l13.266-7.648c0.789-0.456 1.765-0.456 2.554 0l13.273 7.648c0.793 0.456 1.28 1.302 1.28 2.216v12.058c0 0.916 0.49 1.762 1.282 2.218 0.793 0.458 1.77 0.454 2.561-5e-3z" fill="#333333"/>
      <path d="m401.84 113.32c0.304-0.176 0.678-0.176 0.982 0l8.13 4.69c0.304 0.176 0.491 0.499 0.491 0.851v9.388c0 0.352-0.187 0.675-0.491 0.851l-8.13 4.69c-0.304 0.176-0.678 0.176-0.982 0l-8.124-4.69c-0.304-0.176-0.491-0.499-0.491-0.851v-9.388c0-0.352 0.187-0.675 0.491-0.851z" fill="#699f63"/>
     </g>
     <g transform="matrix(.11073 0 0 .11073 523.18 470.44)">
      <g>
       <linearGradient id="XMLID_2_" x1="187.7" x2="149.64" y1="199.29" y2="121.63" gradientTransform="matrix(1,0,0,-1,0,288.11)" gradientUnits="userSpaceOnUse">
        <stop stop-color="#41873F" offset="0"/>
        <stop stop-color="#418B3D" offset=".3288"/>
        <stop stop-color="#419637" offset=".6352"/>
        <stop stop-color="#3FA92D" offset=".9319"/>
        <stop stop-color="#3FAE2A" offset="1"/>
       </linearGradient>
       <path id="XMLID_143_" d="m173.12 70.717c-1.574-0.909-3.514-0.909-5.087 0l-42.134 24.314c-1.576 0.909-2.546 2.588-2.546 4.408v48.666c0 1.818 0.97 3.497 2.544 4.408l42.134 24.334c1.575 0.909 3.515 0.909 5.091 0l42.124-24.334c1.574-0.91 2.543-2.59 2.543-4.408v-48.668c0-1.818-0.97-3.497-2.545-4.406z" fill="url(#XMLID_2_)"/>
      </g>
      <g>
       <clipPath id="SVGID_2_">
        <use overflow="visible" xlink:href="#SVGID_1_"/>
       </clipPath>
       <g clip-path="url(#SVGID_2_)">
        <path d="m167.94 70.717-42.222 24.314c-1.576 0.909-2.722 2.588-2.722 4.408v48.666c0 1.203 0.514 2.339 1.313 3.238l47.44-81.152c-1.274-0.314-2.652-0.142-3.809 0.526z" fill="none"/>
        <path d="m171.99 177.34c0.41-0.113 0.81-0.275 1.186-0.492l42.177-24.334c1.574-0.91 2.649-2.59 2.649-4.408v-48.668c0-1.338-0.598-2.598-1.54-3.534z" fill="none"/>
        <linearGradient id="SVGID_3_" x1="164.16" x2="270.96" y1="158.65" y2="237.56" gradientTransform="matrix(1,0,0,-1,0,288.11)" gradientUnits="userSpaceOnUse">
         <stop stop-color="#41873F" offset=".1376"/>
         <stop stop-color="#54A044" offset=".4032"/>
         <stop stop-color="#66B848" offset=".7136"/>
         <stop stop-color="#6CC04A" offset=".9081"/>
        </linearGradient>
        <path d="m215.33 95.031-42.252-24.314c-0.417-0.241-0.863-0.413-1.322-0.526l-47.44 81.152c0.409 0.46 0.888 0.861 1.42 1.169l42.323 24.334c1.199 0.692 2.624 0.854 3.931 0.492l44.473-81.436c-0.338-0.334-0.717-0.631-1.133-0.871z" fill="url(#SVGID_3_)"/>
       </g>
      </g>
      <g>
       <clipPath id="SVGID_5_">
        <use overflow="visible" xlink:href="#SVGID_4_"/>
       </clipPath>
       <g clip-path="url(#SVGID_5_)">
        <path d="m218 148.1v-48.668c0-1.818-1.098-3.497-2.673-4.406l-42.252-24.314c-0.485-0.28-1.011-0.463-1.551-0.571l46.317 79.128c0.099-0.379 0.159-0.769 0.159-1.169z" fill="none"/>
        <path d="m125.72 95.031c-1.576 0.909-2.722 2.588-2.722 4.408v48.666c0 1.818 1.16 3.497 2.733 4.408l42.323 24.334c0.995 0.574 2.146 0.784 3.256 0.632l-45.337-82.594z" fill="none"/>
        <linearGradient id="SVGID_6_" x1="121.86" x2="219.28" y1="226.17" y2="226.17" gradientTransform="matrix(1,0,0,-1,0,288.11)" gradientUnits="userSpaceOnUse">
         <stop stop-color="#6CC04A" offset=".0919"/>
         <stop stop-color="#66B848" offset=".2864"/>
         <stop stop-color="#54A044" offset=".5968"/>
         <stop stop-color="#41873F" offset=".8624"/>
        </linearGradient>
        <polygon points="166.82 62.11 166.63 61.779 166.05 62.11" fill="url(#SVGID_6_)"/>
        <linearGradient id="SVGID_7_" x1="121.86" x2="219.28" y1="164.35" y2="164.35" gradientTransform="matrix(1,0,0,-1,0,288.11)" gradientUnits="userSpaceOnUse">
         <stop stop-color="#6CC04A" offset=".0919"/>
         <stop stop-color="#66B848" offset=".2864"/>
         <stop stop-color="#54A044" offset=".5968"/>
         <stop stop-color="#41873F" offset=".8624"/>
        </linearGradient>
        <path d="m215.35 152.51c1.228-0.71 2.144-1.891 2.491-3.238l-46.317-79.128c-1.209-0.241-2.492-0.058-3.581 0.571l-41.968 24.168 45.337 82.594c0.647-0.088 1.281-0.298 1.861-0.632z" fill="url(#SVGID_7_)"/>
        <linearGradient id="SVGID_8_" x1="121.86" x2="219.28" y1="136.54" y2="136.54" gradientTransform="matrix(1,0,0,-1,0,288.11)" gradientUnits="userSpaceOnUse">
         <stop stop-color="#6CC04A" offset=".0919"/>
         <stop stop-color="#66B848" offset=".2864"/>
         <stop stop-color="#54A044" offset=".5968"/>
         <stop stop-color="#41873F" offset=".8624"/>
        </linearGradient>
        <polygon points="219 151.89 219.28 151.73 219 151.25" fill="url(#SVGID_8_)"/>
        <linearGradient id="SVGID_9_" x1="121.86" x2="219.28" y1="123.97" y2="123.97" gradientTransform="matrix(1,0,0,-1,0,288.11)" gradientUnits="userSpaceOnUse">
         <stop stop-color="#6CC04A" offset=".0919"/>
         <stop stop-color="#66B848" offset=".2864"/>
         <stop stop-color="#54A044" offset=".5968"/>
         <stop stop-color="#41873F" offset=".8624"/>
        </linearGradient>
        <path d="m215.35 152.51-42.177 24.334c-0.58 0.335-1.214 0.544-1.861 0.632l0.84 1.53 46.847-27.117v-0.639l-1.158-1.978c-0.347 1.347-1.263 2.527-2.491 3.238z" fill="url(#SVGID_9_)"/>
        <linearGradient id="SVGID_10_" x1="233.47" x2="173.39" y1="201.59" y2="79.023" gradientTransform="matrix(1,0,0,-1,0,288.11)" gradientUnits="userSpaceOnUse">
         <stop stop-color="#41873F" offset="0"/>
         <stop stop-color="#418B3D" offset=".3288"/>
         <stop stop-color="#419637" offset=".6352"/>
         <stop stop-color="#3FA92D" offset=".9319"/>
         <stop stop-color="#3FAE2A" offset="1"/>
        </linearGradient>
        <path d="m215.35 152.51-42.177 24.334c-0.58 0.335-1.214 0.544-1.861 0.632l0.84 1.53 46.847-27.117v-0.639l-1.158-1.978c-0.347 1.347-1.263 2.527-2.491 3.238z" fill="url(#SVGID_10_)"/>
       </g>
      </g>
     </g>
    </g>
    <g transform="matrix(.75517 0 0 .75517 5.7666 112.76)">
     <rect x="282.81" y="459.84" width="210.94" height="52.968" ry="0" fill="#f7df1e"/>
     <text x="325.98901" y="495.5965" fill="#ffffff" font-family="Ubuntu" font-size="26.667px" font-weight="bold" stroke-linecap="round" stroke-width="6.2435" xml:space="preserve"><tspan x="325.98901" y="495.5965" fill="#ffffff" font-size="26.667px" stroke-width="6.2435">JAVASCRIPT</tspan></text>
     <path d="m289.86 471.33v30h30v-30zm16.071 23.304c0 2.9203-1.725 4.344-4.2221 4.344-2.2554 0-3.5645-1.1678-4.2288-2.5774l2.2955-1.3895c0.44264 0.78549 0.7788 1.4498 1.7451 1.4498 0.80357 0 1.4638-0.36228 1.4638-1.7719v-9.4299h2.9464zm6.6529 4.277c-2.6176 0-4.3092-1.1812-5.1348-2.8125l2.2989-1.3306c0.60268 0.98705 1.3895 1.6446 2.779 1.6446 1.1679 0 1.8462-0.51696 1.8462-1.3225 0-0.9663-0.69844-1.3085-1.9875-1.875l-0.70447-0.30268c-2.0344-0.86518-3.383-1.9527-3.383-4.2489 0-2.1141 1.6105-3.6583 4.1277-3.6583 1.7926 0 3.0804 0.55714 4.0078 2.1884l-2.1991 1.4136c-0.48348-0.86585-1.0045-1.2054-1.812-1.2054-0.82567 0-1.3493 0.52366-1.3493 1.2054 0 0.84575 0.52366 1.1879 1.7317 1.7116l0.70447 0.30201c2.3966 1.0272 3.746 2.0759 3.746 4.4304 6.7e-4 2.538-1.9929 3.8598-4.6714 3.8598z" fill="#141321" stroke-width=".066964"/>
    </g>
    <g transform="translate(21.551 .17642)">
     <rect x="680.32" y="459.84" width="72.835" height="40" ry="0" fill="#19fef4" stroke-width=".75517"/>
     <path d="m724.31 474.87c-1.0311 0.26488-1.8825 0.40677-2.7528 0.71896-0.69058 0.17973-1.3906 0.36893-2.1947 0.57705l-0.0568 9e-3c-0.39731 0.11351-0.43516 0.12298-0.80411-0.30272-0.44462-0.50138-0.76628-0.82299-1.3811-1.1257-1.8636-0.90817-3.661-0.64327-5.3354 0.44462-2.0055 1.296-3.0366 3.2164-3.0082 5.6003 0.0284 2.365 1.646 4.3043 3.8974 4.6259 2.0812 0.26488 3.7651-0.43515 5.0894-1.9393 0.19866-0.24596 0.37839-0.50137 0.57705-0.78516 0.0757-0.0946 0.1419-0.19865 0.21758-0.31217h-5.6854c-0.61489 0-0.76627-0.37839-0.55813-0.87978 0.3784-0.91761 1.0879-2.4501 1.5042-3.2164 0.0851-0.17028 0.29325-0.54867 0.65273-0.54867h9.5643c0.4257-1.2676 1.1163-2.5447 2.0434-3.7556 2.1474-2.8285 4.6637-4.3042 8.2488-4.9191 3.0082-0.52975 5.8367-0.23649 8.4096 1.5042 2.3271 1.5893 3.7651 3.7461 4.1529 6.5746 0.50138 3.9826-0.65273 7.2179-3.4718 9.9894-1.8636 1.9771-4.2475 3.2164-6.9909 3.7745-0.52976 0.0946-1.0501 0.1419-1.5609 0.18919-0.27434 0.019-0.53922 0.0473-0.80411 0.0757-2.6772-0.0568-5.1272-0.82299-7.1896-2.592-1.4474-1.2582-2.4501-2.8001-2.942-4.5881-0.35002 0.69058-0.75676 1.3623-1.3244 1.9961-2.0434 2.8001-4.8151 4.5408-8.3152 5.0043-2.8947 0.38786-5.5719-0.17027-7.9369-1.9393-2.1758-1.6555-3.415-3.8313-3.7367-6.5462-0.38786-3.2164 0.55813-6.1868 2.4974-8.6369 2.1001-2.7434 4.8718-4.484 8.2586-5.0988 2.7718-0.58652 5.4205-0.17974 7.8138 1.4474 1.5609 1.0311 2.6772 2.4406 3.415 4.1528 0.17974 0.26487 0.0568 0.41623-0.29326 0.50137zm-33.28 0.52975c-0.11824 0-0.14757-0.0568-0.0889-0.15136l0.61962-0.79459c0.0587-0.0851 0.20623-0.1419 0.32448-0.1419h10.525c0.11352 0 0.1419 0.0851 0.0851 0.17028l-0.50137 0.76628c-0.0568 0.0946-0.20812 0.17973-0.29326 0.17973zm-4.4513 2.715c-0.11786 0-0.14735-0.0662-0.0884-0.15136l0.619-0.79459c0.059-0.0851 0.20641-0.15136 0.324-0.15136h13.444c0.11352 0 0.17028 0.0946 0.1419 0.17974l-0.2365 0.70949c-0.0284 0.11352-0.14189 0.17974-0.26487 0.17974zm7.0452 2.5353c-0.0587 0.0851-0.0293 0.17028 0.088 0.17028l6.428 0.0284c0.0851 0 0.20812-0.0851 0.20812-0.19866l0.0568-0.70949c0-0.12298-0.0568-0.20812-0.17974-0.20812h-5.8935c-0.11825 0-0.23555 0.0851-0.29515 0.17974zm47.439-1.7028c-0.0189-0.24596-0.0284-0.45407-0.0662-0.66219-0.52975-2.9136-3.2164-4.5691-6.0165-3.9164-2.7434 0.61489-4.5124 2.3555-5.1556 5.1272-0.52975 2.2988 0.58651 4.6259 2.7056 5.5719 1.6271 0.70949 3.2448 0.62435 4.8056-0.17974 2.3271-1.2865 3.5948-3.0934 3.7461-5.6286-9e-3 -0.11352-9e-3 -0.21758-0.019-0.31218z" fill="#141321" stroke-width=".0946"/>
    </g>
    <g transform="translate(66.719 -167.77)">
     <rect x="333.35" y="627.79" width="159.3" height="40" ry="0" fill="#3178c6" stroke-width=".75517"/>
     <g transform="matrix(.75517 0 0 .75517 82.034 153.5)">
      <g transform="matrix(2 0 0 2 339.99 639.54)" fill="#141321">
       <path d="m0 0h15v15h-15zm10 6c-1.1046 0-2 0.89543-2 2s0.89543 2 2 2h1c0.5523 0 1 0.4477 1 1s-0.4477 1-1 1h-1c-0.55228 0-1-0.4477-1-1h-1c0 1.1046 0.89543 2 2 2h1c1.1046 0 2-0.8954 2-2 0-1.1046-0.8954-2-2-2h-1c-0.55228 0-1-0.44772-1-1s0.44772-1 1-1h1.1667c0.4602 0 0.8333 0.3731 0.8333 0.83333v0.16667h1v-0.16667c0-1.0125-0.8208-1.8333-1.8333-1.8333zm-7 0h5v1h-2v6h-1v-6h-2z" clip-rule="evenodd" fill="#141321" fill-rule="evenodd"/>
      </g>
      <text x="375.92444" y="663.80756" fill="#ffffff" font-family="Ubuntu" font-size="26.667px" font-weight="bold" stroke-linecap="round" stroke-width="6.2435" xml:space="preserve"><tspan x="375.92444" y="663.80756" fill="#ffffff" font-size="26.667px" stroke-width="6.2435">TYPESCRIPT</tspan></text>
     </g>
    </g>
   </g>
  </g>
 </g>
</svg>
